<?xml version="1.0" encoding="utf-8"?>
<!-- Generator: Adobe Illustrator 27.5.0, SVG Export Plug-In . SVG Version: 6.00 Build 0)  -->
<svg version="1.1" id="Layer_1" xmlns="http://www.w3.org/2000/svg" xmlns:xlink="http://www.w3.org/1999/xlink" x="0px" y="0px"
	 viewBox="0 0 288 288" style="enable-background:new 0 0 288 288;" xml:space="preserve">
<g>
	<rect y="0" style="fill:#F01900;" width="288" height="288"/>
	<g>
		<g>
			<path style="opacity:0.2;fill:#001F23;" d="M158.268,110.626l3.435-3.862l2.31,2.627L158.268,110.626z M128.792,116.959
				c2.997-3.369,7.174-8.066,7.174-8.066c0.001-0.001,0.001-0.002,0.002-0.003c0,0,0-0.001,0.001-0.001c0,0,0,0,0.001-0.001
				c0.001-0.001,0.001-0.001,0.002-0.003c0.001-0.001,0.001-0.001,0.002-0.003c2.005-2.259,3.357-4.924,4.056-7.995l2.957,5.649
				l-0.466,7.472l-2.866,0.616l-2.372,2.667l0.136-2.187L128.792,116.959z M96.943,123.273l3.573-4.017
				c0.186,1.298,0.529,2.437,1.029,3.418C100.08,122.753,98.547,122.953,96.943,123.273z M98.33,138.951l6.306-7.089l2.177-5.127
				c0.642,0.157,1.329,0.259,2.061,0.304l-3.781,4.251l-0.392,6.293L98.33,138.951z M85.924,147.246
				c-0.033-0.712-0.024-1.477,0.027-2.296c0.04-0.641,0.104-1.262,0.192-1.862c1.334-0.263,2.615-0.4,3.842-0.409L85.924,147.246z
				 M65.388,158.352c-0.39,6.252,0.881,10.729,3.811,13.43c2.932,2.701,7.275,3.433,13.031,2.196
				c5.245-1.127,10.103-2.919,14.574-5.375l6.411-7.208l-0.478,7.666l22.171-4.764l10.158-11.421l0.519-8.319l-8.184,1.759
				l7.735-8.697l0.288-4.614l2.675-0.575l-1.835,29.427l10.09-2.168l10.157-11.421l1.28-20.533l9.647-10.847l0.52-8.344
				l-2.309,0.496l7.723-7.554c0.692-0.674,1.75-1.812,3.174-3.413l2.454-2.759l-0.72,7.647l-0.585,7.017l-2.652,42.512l15.351-3.299
				l10.157-11.421l4.582-73.465l-12.618,2.711l-24.575,23.871l-5.509,6.195l0.268-4.306l12.871-24.067l-10.254,2.203l-8.825,9.922
				l-3.202-7.337l-10.302,2.214l-1.184,1.331l0.068-1.092l-9.463,2.034l-10.158,11.42l-1.056,16.921l-0.03-0.033
				c-0.856-0.932-1.206-2.649-1.05-5.154l1.297-20.791l-9.511,2.044l-5.304,5.963c-0.189-0.369-0.42-0.701-0.692-0.997
				c-0.459-0.499-1.038-0.896-1.735-1.189c-2.219-0.934-5.708-0.889-10.467,0.133l-12.219,2.626l-10.159,11.42l-2.21,35.428
				l10.824-2.326c-2.866,3.223-8.45,9.5-8.45,9.5c-0.018,0.02-0.035,0.04-0.053,0.059C67.784,147.14,65.769,152.255,65.388,158.352z
				"/>
			<g>
				<g>
					<path style="fill:#FFFFFF;" d="M81.483,88.927l12.219-2.626c4.76-1.023,8.248-1.067,10.467-0.133
						c2.218,0.934,3.234,2.911,3.046,5.932c-0.124,1.987-0.733,3.791-1.826,5.413c-1.095,1.621-2.476,2.811-4.147,3.568
						l-0.015,0.243c2.135,0.115,3.649,0.746,4.538,1.894c0.889,1.148,1.267,2.804,1.132,4.969c-0.201,3.215-1.552,6.004-4.056,8.367
						c-2.503,2.363-5.815,3.987-9.935,4.872l-13.632,2.93L81.483,88.927z M89.662,107.49l-0.464,7.44l3.33-0.715
						c2.954-0.635,4.511-2.213,4.668-4.733c0.074-1.178-0.266-1.999-1.017-2.459c-0.751-0.46-1.877-0.529-3.379-0.206L89.662,107.49
						z M90.099,100.487l2.851-0.612c1.357-0.292,2.425-0.8,3.203-1.525c0.778-0.725,1.201-1.645,1.271-2.76
						c0.124-1.987-1.299-2.661-4.27-2.023l-2.659,0.572L90.099,100.487z"/>
					<path style="fill:#FFFFFF;" d="M141.872,75.951l-1.33,21.324c-0.29,4.637-1.811,8.506-4.565,11.608
						c-2.754,3.102-6.575,5.178-11.462,6.228c-4.776,1.026-8.368,0.579-10.777-1.341c-2.41-1.921-3.469-5.199-3.18-9.836
						l1.344-21.542l9.511-2.044l-1.297,20.791c-0.157,2.504,0.193,4.222,1.05,5.154c0.855,0.932,2.186,1.203,3.991,0.816
						c1.932-0.415,3.368-1.277,4.309-2.587c0.94-1.31,1.491-3.241,1.65-5.794l1.294-20.743L141.872,75.951z"/>
					<path style="fill:#FFFFFF;" d="M158.46,85.344l6.856-14.431l10.254-2.203L162.7,92.776l-0.863,13.837l-9.535,2.049
						l0.845-13.545l-10.159-19.406l10.302-2.214L158.46,85.344z"/>
				</g>
				<g>
					<path style="fill:#FFFFFF;" d="M200.552,137.769l-15.351,3.299l2.652-42.511l0.585-7.017l0.724-7.692
						c-2.711,3.129-4.589,5.2-5.633,6.218l-8.769,8.577l-6.819-7.756l24.575-23.871l12.618-2.711L200.552,137.769z"/>
				</g>
				<g>
					<path style="fill:#FFFFFF;" d="M92.115,140.287l16.117-3.463l-1.27,20.359c-4.471,2.456-9.329,4.247-14.574,5.374
						c-5.755,1.237-10.098,0.505-13.03-2.196c-2.931-2.7-4.201-7.178-3.811-13.429c0.38-6.097,2.395-11.211,6.048-15.344
						c3.651-4.132,8.576-6.864,14.774-8.196c2.35-0.505,4.554-0.758,6.611-0.758c2.058,0,3.84,0.178,5.347,0.533l-3.692,8.695
						c-2.607-0.765-5.52-0.802-8.738-0.111c-2.946,0.633-5.284,2.091-7.014,4.374c-1.729,2.283-2.707,5.225-2.932,8.825
						c-0.22,3.531,0.34,6.066,1.681,7.604c1.34,1.538,3.381,2.013,6.123,1.424c1.498-0.322,2.887-0.764,4.165-1.328l0.369-5.916
						l-6.667,1.432L92.115,140.287z"/>
					<path style="fill:#FFFFFF;" d="M135.066,152.876l-22.171,4.764l2.355-37.771l22.171-4.764l-0.511,8.19l-12.082,2.596
						l-0.371,5.941l11.188-2.404l-0.511,8.19l-11.188,2.404l-0.445,7.13l12.082-2.596L135.066,152.876z"/>
					<path style="fill:#FFFFFF;" d="M156.51,148.268l-10.09,2.168l1.835-29.426l-9.119,1.959l0.521-8.344l28.301-6.081l-0.52,8.344
						l-9.093,1.954L156.51,148.268z"/>
				</g>
			</g>
		</g>
		<polygon style="fill:#FFFFFF;" points="227.587,195.97 63.058,233.068 68.011,172.91 232.54,135.811 212.822,169.255 		"/>
		<g>
			<path style="fill:#F01900;" d="M87.817,219.271l-11.658,2.505l2.764-44.318l25.894-5.563l-0.599,9.609l-14.236,3.059
				l-0.527,8.457l13.127-2.821l-0.599,9.609l-13.127,2.821L87.817,219.271z"/>
			<path style="fill:#F01900;" d="M119.021,196.655l-1.006,16.127l-11.838,2.544l2.764-44.318l14.355-3.085
				c11.908-2.559,17.59,0.527,17.045,9.257c-0.32,5.134-3.045,9.637-8.175,13.511l11.563,16.566l-13.427,2.885l-8.284-14.131
				L119.021,196.655z M119.583,187.652l2.218-0.476c4.136-0.889,6.319-3.182,6.549-6.88c0.19-3.051-1.742-4.142-5.798-3.27
				l-2.337,0.502L119.583,187.652z"/>
			<path style="fill:#F01900;" d="M170.66,201.47l-26.014,5.59l2.764-44.318l26.014-5.59l-0.599,9.609l-14.177,3.046l-0.435,6.972
				l13.127-2.821l-0.6,9.609l-13.127,2.821l-0.521,8.367l14.176-3.046L170.66,201.47z"/>
			<path style="fill:#F01900;" d="M201.277,194.891l-26.014,5.59l2.764-44.318l26.014-5.59l-0.599,9.609l-14.177,3.046l-0.435,6.973
				l13.127-2.821l-0.6,9.609l-13.127,2.821l-0.521,8.366l14.176-3.046L201.277,194.891z"/>
		</g>
	</g>
	<g>
		<defs>
			<rect id="SVGID_1_" y="0" width="288" height="288"/>
		</defs>
		<clipPath id="SVGID_00000041257434279353425350000007412541300245075588_">
			<use xlink:href="#SVGID_1_"  style="overflow:visible;"/>
		</clipPath>
		<path style="clip-path:url(#SVGID_00000041257434279353425350000007412541300245075588_);fill:#FFFFFF;" d="M-12.793,81.357
			L312.54-15.881c0,0-325.333-21.913-325.333-17.804C-12.793-29.577-12.793,81.357-12.793,81.357z"/>
		<path style="clip-path:url(#SVGID_00000041257434279353425350000007412541300245075588_);fill:#FFFFFF;" d="M312.54,201.357
			l-325.333,97.238c0,0,325.333,21.913,325.333,17.804C312.54,312.291,312.54,201.357,312.54,201.357z"/>
		<path style="clip-path:url(#SVGID_00000041257434279353425350000007412541300245075588_);fill:#001F23;" d="M-12.793,52.913
			L312.54-10.198c0,0-325.333-14.222-325.333-11.556C-12.793-19.087-12.793,52.913-12.793,52.913z"/>
		<path style="clip-path:url(#SVGID_00000041257434279353425350000007412541300245075588_);fill:#001F23;" d="M312.54,232.135
			l-325.333,63.111c0,0,325.333,14.222,325.333,11.556C312.54,304.135,312.54,232.135,312.54,232.135z"/>
	</g>
</g>
</svg>
