<svg version="1.2" xmlns="http://www.w3.org/2000/svg" viewBox="0 0 2122 2122" width="2122" height="2122">
	<style>
		.s0 { fill: #6158a5 } 
		.s1 { fill: #f9bfb9 } 
		.s2 { fill: #f37f5d } 
		.s3 { fill: #9ed08c } 
		.s4 { fill: #f59892 } 
		.s5 { fill: #000001 } 
	</style>
	<g id="Capa 2">
		<g id="&lt;Group&gt;">
			<path id="&lt;Path&gt;" class="s0" d="m1061 0c-585.98 0-1061 475.02-1061 1061 0 268.01 99.46 512.73 263.37 699.48l-0.06 0.03q0.79 0.85 1.57 1.72 11.66 13.2 23.75 26.01 2.95 3.11 5.92 6.21c8.42 8.8 16.95 17.51 25.66 26.02q1.1 1.06 2.17 2.11 6.7 6.49 13.51 12.88 1.16 1.08 2.33 2.17 30.07 28.01 62.24 53.65 0.23 0.19 0.49 0.39 7.32 5.82 14.76 11.51 1.55 1.19 3.13 2.39 7.15 5.46 14.41 10.79 1.62 1.18 3.25 2.37 7.53 5.5 15.16 10.89 0.06 0.03 0.13 0.08 1.26 0.88 2.53 1.75 0.02 0.01 0.02 0.01 0.39 0.27 0.76 0.53c2.34 1.61 4.72 3.16 7.05 4.77 5.43 3.71 10.85 7.46 16.36 11.08q12.18 8.04 24.59 15.73 1.12 0.7 2.25 1.39 7.38 4.54 14.83 8.95 0.31 0.2 0.63 0.39 2.05 1.21 4.1 2.41 7.48 4.39 15.03 8.67 2.12 1.18 4.26 2.38 7.85 4.4 15.78 8.66 0.42 0.23 0.84 0.45 13.98 7.47 28.21 14.55 0.9 0.45 1.8 0.88 11.73 5.81 23.62 11.33 2 0.95 4.02 1.89 2.59 1.17 5.2 2.33 0.91 0.41 1.81 0.81 4.23 1.92 8.5 3.82 2.78 1.23 5.57 2.44 7.66 3.32 15.4 6.53 2.65 1.09 5.3 2.17 0.27 0.1 0.52 0.2 1.42 0.59 2.86 1.17 6.42 2.62 12.89 5.14 0.56 0.22 1.13 0.43 10.36 4.01 20.82 7.81 1.92 0.69 3.83 1.37 0.36 0.12 0.72 0.23 15.27 5.5 30.76 10.53 1.18 0.39 2.38 0.78 1.29 0.41 2.59 0.83 0.21 0.06 0.42 0.14 7.9 2.5 15.86 4.88 3.22 0.97 6.46 1.93 6.76 1.99 13.57 3.9 1.38 0.39 2.77 0.77 2.77 0.75 5.54 1.49 8.41 2.29 16.87 4.45 0.33 0.08 0.66 0.15 5.7 1.44 11.45 2.8 2.18 0.54 4.35 1.06 0.76 0.17 1.53 0.33 12.29 2.9 24.69 5.51c2.17 0.45 4.39 0.84 6.57 1.29 1.11 0.22 2.2 0.49 3.31 0.71q2.95 0.57 5.9 1.13 1.24 0.22 2.48 0.45 14.24 2.71 28.61 5.06 1.15 0.19 2.3 0.4 2.17 0.36 4.36 0.72 0.7 0.1 1.43 0.19c3.09 0.48 6.2 0.84 9.3 1.27 8.52 1.23 17.02 2.49 25.58 3.52q3.83 0.45 7.66 0.87c3.01 0.34 6 0.72 9.03 1.03q0.48 0.06 0.97 0.12 12.14 1.24 24.35 2.22 1.59 0.13 3.16 0.28 11.85 0.9 23.78 1.54 1.9 0.12 3.81 0.24c3.08 0.15 6.19 0.24 9.29 0.38q4.31 0.18 8.62 0.33 2.73 0.1 5.43 0.21 2.18 0.07 4.36 0.16 13.85 0.36 27.78 0.36 14.53-0.01 28.96-0.4 3.21-0.12 6.42-0.24 2.2-0.09 4.42-0.18c5.97-0.23 11.96-0.44 17.91-0.77 3.66-0.19 7.29-0.45 10.95-0.69q1.51-0.1 3.02-0.2 0.9-0.05 1.78-0.09 0.99-0.09 1.98-0.18c3.63-0.26 7.29-0.47 10.91-0.77q5.73-0.48 11.43-1.02 8.55-0.76 17.05-1.67 5.76-0.63 11.51-1.32 8.46-1 16.87-2.12 5.66-0.77 11.3-1.59 8.55-1.26 17.03-2.63 5.42-0.87 10.81-1.8 8.9-1.56 17.75-3.26 4.89-0.92 9.76-1.87 6.55-1.34 13.1-2.74 0.18-0.05 0.35-0.08 3.09-0.67 6.19-1.35c2.53-0.56 5.09-1.09 7.61-1.66 4.55-1.04 9.06-2.18 13.6-3.28q0.46-0.11 0.94-0.23c3.9-0.95 7.84-1.85 11.73-2.83q0.35-0.09 0.69-0.17c4.22-1.09 8.4-2.29 12.6-3.41q0.63-0.18 1.26-0.34c4.64-1.26 9.31-2.46 13.94-3.78q0.64-0.19 1.28-0.39c3.19-0.91 6.35-1.91 9.52-2.85q0.47-0.15 0.95-0.29c4.95-1.48 9.93-2.92 14.86-4.47q2.93-0.95 5.87-1.91 2.88-0.92 5.76-1.87 0.34-0.1 0.69-0.22 7.06-2.31 14.08-4.7 3.56-1.24 7.11-2.5 5.24-1.87 10.46-3.79 2.23-0.79 4.45-1.6 2.09-0.76 4.2-1.52 3.7-1.4 7.4-2.8 9.37-3.58 18.66-7.34 3.59-1.45 7.17-2.93 9.51-3.92 18.92-8.02 3.19-1.38 6.38-2.79c1.81-0.81 3.59-1.64 5.38-2.47q0.47-0.21 0.92-0.4 6.82-3.07 13.59-6.21 2.51-1.17 5.01-2.35c2.79-1.32 5.53-2.71 8.29-4.04q1.86-0.92 3.72-1.83 1.37-0.67 2.74-1.35c2.47-1.21 4.95-2.38 7.4-3.62q1.19-0.58 2.35-1.17c5.48-2.77 10.89-5.65 16.3-8.53q2.19-1.14 4.34-2.27 0.54-0.29 1.07-0.59 13.36-7.18 26.5-14.73c0.98-0.55 1.98-1.07 2.97-1.64q0.07-0.05 0.16-0.11c1.07-0.61 2.1-1.27 3.16-1.88q12.65-7.38 25.07-15.07 1.14-0.69 2.28-1.38 0.4-0.24 0.79-0.5 7.53-4.68 14.95-9.49 0.26-0.17 0.53-0.34c3.38-2.2 6.72-4.49 10.08-6.73q3.66-2.43 7.29-4.88c1.68-1.14 3.4-2.23 5.08-3.39q0.93-0.64 1.85-1.28 8.74-6.05 17.35-12.28c0.81-0.58 1.65-1.13 2.47-1.72q0.25-0.19 0.52-0.39 0.27-0.19 0.54-0.39 1.08-0.78 2.16-1.57 10.3-7.51 20.4-15.25 0.93-0.7 1.84-1.41 10.51-8.09 20.82-16.45 0.37-0.3 0.75-0.6 19.55-15.88 38.3-32.64 0.48-0.42 0.96-0.84 0.75-0.7 1.49-1.39 11.86-10.66 23.4-21.67 0.09-0.08 0.18-0.17 2.47-2.38 4.89-4.79 1.42-1.4 2.86-2.78 7.75-7.56 15.37-15.25c1.01-1.02 2.04-2.01 3.04-3.03q1.33-1.36 2.68-2.73c1.42-1.47 2.78-3 4.21-4.48q6.57-6.86 13.02-13.85 0.72-0.77 1.44-1.55 3.68-3.95 7.31-7.95 0.53-0.57 1.04-1.12 8.02-8.94 15.85-18.05c1.24-1.45 2.54-2.86 3.78-4.33q1.67-1.94 3.31-3.9c6.12-7.26 12.11-14.63 18.04-22.05 1.17-1.44 2.38-2.85 3.52-4.3 1.78-2.24 3.48-4.58 5.23-6.85q4.79-6.17 9.49-12.41 3.76-4.96 7.47-9.97c5.6-7.62 11.14-15.3 16.54-23.06l0.02-0.03c119.27-171.59 189.26-380.03 189.26-604.84 0-585.98-475.02-1061-1061-1061z"/>
			<path id="&lt;Path&gt;" class="s1" d="m1900.06 1584.41q3.62-5.97 7.07-12.03l0.01-0.03c86.23-152.07 81.02-344.04-30.07-493.88-69.18-93.31-167.74-154.51-275.07-180.38q-5.7-1.64-11.75-2.71l-1-0.19q-9.82-2.1-19.73-3.8c-55.35-11.69-98.77-29.47-132.81-49.27-6.07-5.44-12.94-9.67-20.38-12.82-15.31-10.41-28.32-21.13-39.32-31.64l5.28-10.25c109.95-229.29-64.96-413.76-261.2-465.2-126.68-33.2-274.6 15.5-371.56 103.48-57.88 13.86-114.13 38.14-165.66 73.57-218.38 150.15-269.67 441.51-114.55 650.72q7.35 9.93 15.15 19.35c87.14 107.86 31.22 207.84 7.03 241.68-68.52 84.8-103.66 188.83-102.29 293.49l-125.84 55.98-0.06 0.03q0.79 0.85 1.57 1.72 11.66 13.2 23.75 26.01 2.95 3.11 5.92 6.21c8.42 8.8 16.95 17.51 25.66 26.02q1.1 1.06 2.17 2.11 6.7 6.49 13.51 12.88 1.16 1.08 2.33 2.17 30.07 28.01 62.24 53.65 0.23 0.19 0.47 0.39 7.34 5.82 14.78 11.51 1.55 1.19 3.13 2.39 7.15 5.46 14.41 10.79 1.62 1.18 3.25 2.37 7.53 5.5 15.16 10.89 0.06 0.03 0.13 0.08 1.26 0.88 2.53 1.75 0.02 0.01 0.02 0.01 0.39 0.27 0.76 0.53c2.34 1.61 4.72 3.16 7.05 4.77 5.43 3.71 10.85 7.46 16.36 11.08q12.18 8.04 24.59 15.73 1.12 0.7 2.25 1.39 7.38 4.54 14.83 8.95 0.31 0.2 0.63 0.39 2.05 1.21 4.1 2.41 7.48 4.39 15.03 8.67 2.12 1.18 4.26 2.38 7.85 4.4 15.78 8.66 0.42 0.23 0.84 0.45 13.98 7.47 28.21 14.55 0.9 0.45 1.8 0.88 11.73 5.81 23.62 11.33 2 0.95 4.02 1.89 2.59 1.17 5.2 2.33 0.91 0.41 1.81 0.81 4.23 1.92 8.5 3.82 2.78 1.23 5.57 2.44 7.66 3.32 15.4 6.53 2.65 1.09 5.3 2.17 0.27 0.1 0.52 0.2 1.42 0.59 2.86 1.17 6.42 2.62 12.89 5.14 0.56 0.22 1.12 0.43 10.37 4.01 20.83 7.81 1.92 0.69 3.83 1.37 0.36 0.12 0.72 0.23 15.27 5.5 30.76 10.53 1.18 0.39 2.38 0.78 1.29 0.41 2.59 0.83 0.21 0.06 0.42 0.14 7.9 2.5 15.86 4.88 3.22 0.97 6.46 1.93 6.76 1.99 13.57 3.9 1.38 0.39 2.77 0.77 2.77 0.75 5.54 1.49 8.41 2.29 16.87 4.45 0.33 0.08 0.66 0.15 5.7 1.44 11.45 2.8 2.17 0.54 4.35 1.06 0.76 0.17 1.53 0.33 12.29 2.9 24.69 5.51c2.17 0.45 4.39 0.84 6.57 1.29 1.11 0.22 2.2 0.49 3.31 0.71q2.95 0.57 5.9 1.13 1.24 0.22 2.48 0.45 14.24 2.71 28.61 5.06 1.15 0.19 2.3 0.4 2.17 0.36 4.34 0.72 0.74 0.1 1.45 0.19c3.09 0.48 6.2 0.84 9.3 1.27 8.52 1.23 17.02 2.49 25.58 3.52q3.83 0.45 7.66 0.87c3.01 0.34 6 0.72 9.03 1.03q0.48 0.06 0.97 0.12 12.14 1.24 24.35 2.22 1.59 0.13 3.16 0.28 11.85 0.9 23.78 1.54 1.9 0.12 3.81 0.24c3.08 0.15 6.19 0.24 9.29 0.38q4.31 0.18 8.62 0.33 2.73 0.1 5.43 0.21 2.18 0.07 4.36 0.16 13.85 0.36 27.78 0.36 14.53-0.01 28.96-0.4 3.21-0.12 6.42-0.24 2.2-0.09 4.42-0.18c5.97-0.23 11.96-0.44 17.91-0.77 3.66-0.19 7.29-0.45 10.95-0.69q1.51-0.1 3.02-0.2 0.9-0.05 1.78-0.09 0.99-0.09 1.98-0.18c3.63-0.26 7.29-0.47 10.91-0.77q5.73-0.48 11.43-1.02 8.55-0.76 17.05-1.67 5.76-0.63 11.51-1.32 8.46-1 16.87-2.12 5.66-0.77 11.3-1.59 8.53-1.26 17.03-2.63 5.42-0.87 10.81-1.8 8.9-1.56 17.75-3.26 4.89-0.92 9.76-1.87 6.55-1.34 13.1-2.74 0.18-0.05 0.35-0.08 3.09-0.67 6.19-1.35c2.53-0.56 5.09-1.09 7.61-1.66 4.55-1.04 9.06-2.18 13.6-3.28q0.46-0.11 0.94-0.23c3.9-0.95 7.84-1.85 11.73-2.83q0.35-0.09 0.69-0.17c4.22-1.09 8.4-2.29 12.6-3.41q0.63-0.18 1.26-0.34c4.64-1.26 9.31-2.46 13.94-3.78q0.64-0.19 1.28-0.39c3.19-0.91 6.33-1.91 9.52-2.85q0.47-0.15 0.95-0.29c4.95-1.48 9.93-2.92 14.86-4.47q2.93-0.95 5.87-1.91 2.88-0.92 5.76-1.87 0.34-0.1 0.69-0.22 7.06-2.31 14.08-4.7 3.56-1.24 7.11-2.5 5.24-1.87 10.46-3.79 2.22-0.79 4.45-1.6 2.09-0.76 4.2-1.52 3.7-1.4 7.38-2.8 9.39-3.58 18.68-7.34 3.59-1.45 7.17-2.93 9.51-3.92 18.92-8.02 3.19-1.38 6.38-2.79c1.81-0.81 3.59-1.64 5.38-2.47q0.47-0.21 0.92-0.4 6.82-3.07 13.59-6.21 2.51-1.17 5.01-2.35c2.79-1.32 5.53-2.71 8.29-4.04q1.86-0.92 3.72-1.83 1.37-0.67 2.74-1.35c2.47-1.21 4.95-2.38 7.4-3.62q1.19-0.58 2.35-1.17c5.48-2.77 10.89-5.65 16.3-8.53q2.19-1.14 4.34-2.27 0.54-0.29 1.07-0.59 13.36-7.18 26.5-14.73c0.98-0.55 1.98-1.07 2.97-1.64q0.07-0.05 0.16-0.11c1.07-0.61 2.1-1.27 3.16-1.88q12.65-7.38 25.07-15.07 1.14-0.69 2.28-1.38 0.4-0.24 0.79-0.5 7.53-4.68 14.95-9.49 0.26-0.17 0.53-0.34c3.38-2.2 6.72-4.49 10.08-6.73q3.66-2.43 7.29-4.88c1.68-1.14 3.4-2.23 5.06-3.39q0.95-0.64 1.87-1.28 8.74-6.05 17.35-12.28c0.81-0.58 1.65-1.13 2.47-1.72q0.25-0.19 0.52-0.39 0.27-0.19 0.54-0.39 1.08-0.78 2.16-1.57 10.3-7.51 20.4-15.25 0.93-0.7 1.84-1.41 10.51-8.09 20.82-16.45 0.37-0.3 0.73-0.6 19.57-15.88 38.32-32.64 0.48-0.42 0.96-0.84 0.75-0.7 1.49-1.39 11.86-10.66 23.4-21.67 0.09-0.08 0.18-0.17 2.47-2.38 4.89-4.79 1.42-1.4 2.86-2.78 7.75-7.56 15.37-15.25c1.01-1.02 2.04-2.01 3.04-3.03q1.33-1.36 2.68-2.73c1.42-1.47 2.78-3 4.21-4.48q6.57-6.86 13.02-13.85 0.72-0.77 1.44-1.55 3.68-3.95 7.31-7.95 0.53-0.57 1.04-1.12 8.02-8.94 15.85-18.05c1.24-1.45 2.54-2.86 3.78-4.33q1.67-1.94 3.31-3.9c6.12-7.26 12.11-14.63 18.04-22.05 1.17-1.44 2.38-2.85 3.52-4.3 1.78-2.24 3.48-4.58 5.23-6.85q4.79-6.17 9.49-12.41 3.76-4.96 7.46-9.97c5.6-7.62 11.15-15.3 16.55-23.06l0.02-0.03-56.06-23.16c7.23-25.8 16.89-46.25 23.38-58.27z"/>
			<g id="&lt;Group&gt;">
				<path id="&lt;Path&gt;" class="s2" d="m566.52 1625.63l264.21-117.51-34.73-187.31c-2.9-0.68-5.81-1.29-8.68-2.04-14.7-3.79-16.14-19.52-9.37-29.1-154.4-75.07-239.54-250.93-194.35-423.32l67.02-255.74c9.67-36.92 24.65-71.05 43.87-101.79 69.84 74.66 240.36 213.17 544.23 244.22 0 0-93.38 132.15-17.43 202.32 7.24-26.48 22.36-53.7 44.97-77.46 45.91-48.21 107.53-66.63 150.07-48.6-15.31-10.41-28.32-21.13-39.32-31.64l5.28-10.25c109.95-229.29-64.96-413.76-261.2-465.2-126.68-33.2-274.6 15.5-371.56 103.48-57.88 13.86-114.13 38.14-165.66 73.57-218.38 150.15-269.67 441.51-114.55 650.72q7.35 9.91 15.15 19.35c87.14 107.86 31.22 207.84 7.03 241.68-68.52 84.8-103.66 188.83-102.29 293.49l96.98-43.12z"/>
				<path id="&lt;Path&gt;" class="s2" d="m1412.62 1017.27c-37.23 39.09-84.81 58.64-124.16 55.06-1 3.1-2.09 6.14-3.17 9.19l63.62 343.1 155.65 64.32 371.82 153.62 0.3 0.12c7.23-25.8 16.89-46.25 23.38-58.27q3.62-5.97 7.07-12.03l0.01-0.03c86.23-152.07 81.02-344.04-30.07-493.88-69.18-93.31-167.74-154.51-275.07-180.38q-5.7-1.64-11.75-2.71l-1-0.19q-9.82-2.1-19.73-3.8c-55.35-11.69-98.77-29.47-132.81-49.27 0.57 0.5 1.22 0.92 1.77 1.45 40.43 38.49 28.84 116.25-25.86 173.7z"/>
			</g>
			<path id="&lt;Path&gt;" class="s3" d="m1876.38 1642.56l-371.82-153.62-155.65-64.32 15.81 85.27-0.04 0.01q0.07 0.24 0.13 0.5c7.2 38.82-102.9 91.79-245.93 118.32-143.02 26.52-264.81 16.55-272-22.27-0.54-2.92-0.33-5.95 0.41-9.02l-16.56-89.31-264.21 117.51-80.33 35.75-96.98 43.12-125.84 55.98-0.06 0.03q0.79 0.85 1.57 1.72 11.66 13.2 23.75 26.01 2.95 3.11 5.92 6.21c8.42 8.8 16.95 17.51 25.66 26.02q1.1 1.06 2.17 2.11 6.7 6.49 13.51 12.88 1.16 1.08 2.33 2.17 30.07 28.01 62.24 53.65 0.23 0.19 0.47 0.39 7.34 5.82 14.78 11.51 1.55 1.19 3.13 2.39 7.15 5.46 14.41 10.79 1.62 1.18 3.25 2.37 7.53 5.5 15.16 10.89 0.06 0.03 0.13 0.08 1.26 0.88 2.53 1.75 0.39 0.27 0.78 0.54c2.34 1.61 4.72 3.16 7.05 4.77 5.43 3.71 10.85 7.46 16.36 11.08q12.18 8.04 24.59 15.73 1.12 0.7 2.25 1.39 7.21 4.43 14.5 8.76 0.48 0.28 0.96 0.58 2.05 1.21 4.1 2.41 7.48 4.39 15.03 8.67 2.12 1.18 4.26 2.38 4.42 2.45 8.86 4.86 1.46 0.81 2.91 1.6 2 1.11 4.01 2.2 0.42 0.23 0.84 0.45 13.35 7.13 26.94 13.88 2.03 1.03 4.08 2.05 11.23 5.55 22.61 10.83 2 0.95 4.02 1.89 2.59 1.17 5.2 2.33 0.91 0.41 1.81 0.81 1.42 0.65 2.85 1.29 2.82 1.27 5.65 2.53 2.78 1.23 5.57 2.44 7.66 3.32 15.4 6.53 2.65 1.09 5.3 2.17 0.19 0.07 0.37 0.14 2.3 0.93 4.62 1.86c3.76 1.51 7.49 3.04 11.28 4.51q0.56 0.22 1.12 0.43 10.37 4.01 20.83 7.81 1.92 0.69 3.83 1.37 0.36 0.12 0.72 0.23 15.27 5.5 30.76 10.53 1.18 0.39 2.38 0.78 1.29 0.41 2.59 0.83 0.21 0.06 0.42 0.14 7.9 2.5 15.86 4.88 3.22 0.97 6.46 1.93 5.41 1.57 10.85 3.1 2.75 0.79 5.49 1.57 2.77 0.75 5.54 1.49 8.41 2.29 16.87 4.45 0.33 0.08 0.66 0.15c3.23 0.82 6.49 1.57 9.75 2.36q3.79 0.93 7.58 1.83 12.29 2.9 24.69 5.51c2.17 0.45 4.39 0.84 6.57 1.29q5.84 1.16 11.69 2.29 14.24 2.71 28.61 5.06 4.04 0.67 8.09 1.31c3.09 0.48 6.2 0.84 9.3 1.27 7.77 1.13 15.55 2.25 23.36 3.22q5.57 0.68 11.14 1.3c2.59 0.29 5.16 0.63 7.77 0.9q0.48 0.06 0.97 0.12 12.03 1.23 24.14 2.19 1.74 0.16 3.48 0.31 11.79 0.9 23.67 1.54 1.9 0.12 3.81 0.24c2.85 0.15 5.74 0.21 8.6 0.33q4.79 0.21 9.58 0.38 2.59 0.1 5.16 0.21 2.18 0.07 4.36 0.16 13.85 0.36 27.78 0.36 17.77-0.01 35.38-0.64 2.2-0.09 4.42-0.18 0.33-0.02 0.66-0.03 15.67-0.6 31.22-1.63 0.9-0.05 1.78-0.09 0.99-0.09 1.98-0.18 17.51-1.23 34.87-3.01 0.88-0.09 1.77-0.18 37.21-3.91 73.62-10.34 0.96-0.18 1.92-0.36 16.73-3 33.29-6.5 1.03-0.21 2.05-0.4 0.18-0.05 0.35-0.08 0.81-0.19 1.62-0.37 12.95-2.8 25.78-5.92 0.46-0.11 0.94-0.23 12.57-3.06 25.02-6.41 0.63-0.18 1.26-0.34 12.42-3.37 24.74-7.02 0.47-0.15 0.95-0.29 12.52-3.73 24.92-7.77 0.79-0.24 1.57-0.48 0.34-0.1 0.69-0.22 1.24-0.42 2.47-0.85 14.68-4.85 29.18-10.14 2.22-0.79 4.45-1.6 33.05-12.18 65.05-26.46 1.54-0.69 3.06-1.41 0.47-0.21 0.92-0.4 13.54-6.12 26.89-12.6 1.86-0.92 3.72-1.83 1.37-0.67 2.74-1.35 13.14-6.48 26.05-13.32 2.19-1.14 4.34-2.27 13.91-7.46 27.57-15.32c0.98-0.55 1.98-1.07 2.97-1.64q0.07-0.05 0.16-0.11c1.07-0.61 2.1-1.27 3.16-1.88q12.65-7.38 25.07-15.07 1.14-0.69 2.28-1.38 0.4-0.24 0.79-0.5c1.32-0.8 2.59-1.69 3.89-2.51q10.93-6.9 21.67-14.05 3.66-2.43 7.29-4.88 12.26-8.31 24.28-16.95c0.81-0.58 1.65-1.13 2.47-1.72q0.25-0.19 0.52-0.39 0 0 0-0.01 13.73-9.96 27.11-20.33c2.17-1.67 4.3-3.4 6.45-5.1q9.94-7.8 19.67-15.84 4.23-3.49 8.43-7.03 9.2-7.77 18.23-15.75c1.63-1.44 3.3-2.81 4.92-4.25q0.48-0.42 0.96-0.84 0.75-0.7 1.49-1.39 11.86-10.66 23.4-21.67 0.09-0.08 0.18-0.17 2.47-2.38 4.89-4.79 1.42-1.4 2.86-2.78 7.75-7.56 15.37-15.25c1.01-1.02 2.04-2.01 3.04-3.03q1.33-1.36 2.68-2.73c1.42-1.47 2.78-3 4.21-4.48q6.57-6.86 13.02-13.85 0.72-0.77 1.44-1.55 3.68-3.95 7.31-7.95 0.53-0.57 1.04-1.12 8.02-8.94 15.85-18.05c1.24-1.45 2.54-2.86 3.78-4.33q1.67-1.94 3.31-3.9c6.12-7.26 12.11-14.63 18.04-22.05 1.17-1.44 2.38-2.85 3.52-4.3 1.78-2.24 3.48-4.58 5.23-6.85q4.79-6.17 9.49-12.41 3.76-4.96 7.46-9.97c5.6-7.62 11.15-15.3 16.55-23.06l0.02-0.03-56.06-23.16z"/>
			<path id="&lt;Path&gt;" class="s4" d="m929.51 1332.32c49.41-2.25 100.94-10.83 144.33-35.81 20.82-11.99 2.04-44.26-18.84-32.24-38.42 22.13-84.55 29.1-128.27 30.84-43.38 1.72-87.41-1.47-129.49-12.34-8.59-2.23-15.34 1.29-19.29 6.9-6.77 9.58-5.33 25.31 9.37 29.1 2.87 0.75 5.78 1.36 8.68 2.04 43.44 10.2 89.07 13.53 133.51 11.51z"/>
			<path id="&lt;Path&gt;" class="s4" d="m822.46 799.89q-39.24 33.53-78.49 67.06c-13.77 11.76-28.06 22.48-32.7 41.26-4.66 18.88 0.61 37.11 12.74 51.88 3.68 4.47 7.53 8.82 11.28 13.22q18.88 22.09 37.74 44.16c6.55 7.67 19.66 6.74 26.4 0 7.6-7.6 6.57-18.7 0-26.4q-14.95-17.5-29.91-35.01c-7.76-9.1-24.02-22.07-22.72-35.43 1.13-11.61 15.36-20.26 23.58-27.28q23.32-19.94 46.65-39.86 15.91-13.6 31.84-27.21c7.67-6.54 6.73-19.65 0-26.39-7.61-7.6-18.71-6.57-26.41 0z"/>
			<path id="&lt;Path&gt;" class="s5" d="m723 789.82c9.79 2.96 21.48-7.02 26.11-22.32 4.64-15.28 0.45-30.08-9.34-33.05-9.79-2.96-21.48 7.02-26.11 22.32-4.64 15.28-0.44 30.09 9.34 33.05z"/>
			<path id="&lt;Path&gt;" class="s5" d="m1005.78 783.97c-9.78-2.97-21.47 7.02-26.11 22.3-4.63 15.3-0.45 30.08 9.34 33.05 9.79 2.98 21.49-7.02 26.11-22.3 4.63-15.29 0.45-30.09-9.34-33.05z"/>
			<path id="&lt;Compound Path&gt;" class="s4" d="m1322.89 890.77c-28.53 17.34-50.38 48.22-52.44 82.04-1.04 16.94 4.73 34.26 16.92 46.25 6.96 6.87 19.55 7.47 26.4 0 6.8-7.39 7.44-19.07 0-26.4-0.57-0.56-1.72-2.25-2.59-3l-0.82-1.34q-0.41-0.74-0.78-1.5l-1.17-3.7q-0.18-0.74-0.33-1.48c0.09-1.14-0.39-3.68-0.4-4.38q-0.05-2.55 0.15-5.09 0.04-0.66 0.12-1.32c0.01-0.1 0.01-0.13 0.04-0.24 0.81-3.61 1.6-7.15 2.82-10.67 0.25-0.73 1.91-4.46 1.48-3.67 0.63-1.3 1.26-2.63 1.94-3.9 1.97-3.66 4.23-7.07 6.58-10.47 0.1-0.13 0.15-0.19 0.22-0.3q0.91-1.12 1.84-2.2 0.99-1.12 2.02-2.21c1.48 0.85 2.97 1.69 4.4 2.63q1.39 0.96 2.76 1.96l0.3 0.24q3.11 2.59 5.95 5.47 2.7 2.71 5.14 5.65l0.24 0.29q1 1.36 1.96 2.78c2.48 3.68 4.58 7.61 6.46 11.63 1.87 4.82 3.39 9.76 4.33 14.88 0.82 4.37 4.88 8.98 8.59 11.15 4 2.35 9.89 3.34 14.38 1.89 10.3-3.34 14.96-12.67 13.04-22.96-4.04-21.77-16.51-42.32-33.54-57.03 0.54-0.13 1.08-0.31 1.63-0.43q1.14-0.26 2.29-0.47l4.1-0.27c1.62-0.04 3.23 0.09 4.85 0.12 0.1 0 0.12 0 0.19 0 0.23 0.05 0.38 0.09 0.69 0.15q2.26 0.48 4.45 1.2c0.28 0.09 0.42 0.12 0.63 0.19 0.06 0.03 0.06 0.05 0.13 0.09q1.9 1.11 3.79 2.23c0.19 0.2 0.39 0.39 0.73 0.71 7.19 6.61 19.38 7.63 26.4 0 6.61-7.2 7.67-19.34 0-26.4-24.08-22.19-59.58-18.12-85.89-2.12zm20.41 62.13q0.11 0.15 0.23 0.3c-0.6-0.8-1.08-1.46-0.23-0.3zm0.48 0.65l0.79 0.99c-0.09-0.06-0.43-0.51-0.79-0.99z"/>
			<path id="&lt;Path&gt;" class="s5" d="m928.36 1084.33c-33.35 0-60.38-19.03-60.38 14.3 0 33.35 27.03 60.38 60.38 60.38 33.33 0 60.36-27.03 60.36-60.38 0-33.33-27.03-14.3-60.36-14.3z"/>
		</g>
	</g>
</svg>