<svg version="1.2" xmlns="http://www.w3.org/2000/svg" viewBox="0 0 2122 2122" width="2122" height="2122">
	<style>
		.s0 { fill: #f9bfb9 } 
		.s1 { fill: #da8151 } 
		.s2 { fill: #6158a5 } 
		.s3 { fill: #fcbb46 } 
		.s4 { fill: #b56336 } 
		.s5 { fill: #000001 } 
		.s6 { fill: #ffffff } 
	</style>
	<g id="Capa 2">
		<path id="&lt;Path&gt;" class="s0" d="m2122 1061c0-585.98-475.02-1061-1061-1061-585.98 0-1061 475.02-1061 1061 0 268.01 99.46 512.73 263.37 699.48l-0.06 0.03q0.79 0.85 1.57 1.72 11.66 13.21 23.77 26.03 2.95 3.11 5.91 6.21c8.44 8.8 16.96 17.52 25.68 26.03q1.07 1.03 2.13 2.06 6.71 6.51 13.53 12.9 1.15 1.08 2.31 2.16 30.08 28.02 62.25 53.66 0.23 0.19 0.47 0.39 7.34 5.82 14.78 11.51 1.55 1.19 3.13 2.39 7.15 5.46 14.41 10.79 1.62 1.18 3.25 2.37 7.53 5.5 15.14 10.88 0.11 0.07 0.21 0.13 25.1 17.63 51.24 33.81 1.12 0.71 2.26 1.41 7.57 4.67 15.23 9.19 2.17 1.29 4.34 2.58 7.47 4.38 15.02 8.65 2.12 1.18 4.26 2.38 7.85 4.4 15.79 8.66 0.41 0.23 0.81 0.44 26.39 14.13 53.66 26.79 1.99 0.94 4 1.87 7.73 3.55 15.53 6.96 2.77 1.23 5.56 2.42 7.66 3.34 15.4 6.55 2.65 1.09 5.3 2.17 8.09 3.32 16.27 6.51 0.56 0.22 1.13 0.43 27.71 10.73 56.13 19.94 2.7 0.88 5.39 1.75 7.9 2.5 15.86 4.88 3.22 0.97 6.46 1.93 7.93 2.33 15.91 4.53 2.97 0.83 5.95 1.62 8.41 2.3 16.89 4.46 0.33 0.08 0.66 0.15c11.04 2.8 22.19 5.36 33.37 7.8q2.38 0.52 4.78 1.05 1.93 0.43 3.87 0.85 14.54 3.02 29.22 5.64c2.47 0.44 4.95 0.82 7.42 1.26q13.15 2.26 26.39 4.2 4.91 0.72 9.84 1.41c11.12 1.53 22.25 2.94 33.48 4.12q0.58 0.06 1.17 0.13 12.43 1.27 24.95 2.26 1.27 0.12 2.53 0.23 11.73 0.9 23.54 1.54 2.03 0.12 4.07 0.25 11.6 0.57 23.26 0.9 2.2 0.09 4.43 0.18 13.85 0.36 27.78 0.36c11.66 0 23.26-0.25 34.83-0.63q2.48-0.09 4.97-0.19 15.28-0.6 30.46-1.59c1.08-0.07 2.14-0.1 3.2-0.16 2.28-0.17 4.51-0.42 6.77-0.59q12.51-0.94 24.93-2.15 5.14-0.5 10.24-1.04c11.08-1.21 22.12-2.51 33.09-4.05q0.6-0.08 1.2-0.17 37.04-5.24 73.22-12.97 0.23-0.05 0.45-0.09 27.23-5.84 53.93-13.06 26.68-7.21 52.8-15.74 0.36-0.12 0.74-0.24 34.66-11.38 68.22-25.03 0.46-0.18 0.93-0.37c35.12-14.31 69.31-30.44 102.43-48.29q9.94-5.35 19.76-10.91 19.62-11.12 38.71-23.03 0.4-0.24 0.79-0.5c11.75-7.34 23.3-14.98 34.74-22.76 3.43-2.34 6.79-4.75 10.19-7.11 4.9-3.41 9.84-6.75 14.67-10.24 3.94-2.84 7.8-5.79 11.69-8.69q2.89-2.13 5.76-4.29 15.7-11.85 30.94-24.27 3.07-2.53 6.12-5.08c10.43-8.62 20.73-17.36 30.82-26.37q0.48-0.42 0.96-0.85 26.43-23.68 51.23-49.05 1.35-1.38 2.68-2.75 24.14-24.9 46.64-51.3 1.68-1.97 3.34-3.96c6-7.11 11.87-14.34 17.69-21.6 1.27-1.59 2.59-3.12 3.85-4.72 1.36-1.7 2.63-3.47 3.98-5.19q5.95-7.65 11.78-15.42c1.58-2.12 3.21-4.2 4.8-6.34q8.37-11.36 16.45-22.95 0.87-1.21 1.74-2.42l-0.05-0.02c119.29-171.59 189.31-379.99 189.31-604.82z"/>
		<path id="&lt;Path&gt;" class="s1" d="m1932.69 1665.82l-56.31-23.26-371.82-153.62-155.65-64.32-63.23-340.99c1.16-3.71 2.21-7.5 3.26-11.28 39.26 3.39 86.6-16.14 123.68-55.08 54.7-57.45 66.29-135.21 25.86-173.7-18.95-18.04-46-24.1-74.99-19.68l18.79-36.48c8.54-17.8 15.16-35.28 20.38-52.51 10.96 4.61 23.16 8.43 36.25 11.08 54.35 11.03 102.82-1.78 108.26-28.62 5.05-24.89-28.75-53.09-77.08-65.83 43.35-30.1 66.64-71 52.19-93.11-14.96-22.93-64.75-16.93-111.18 13.4-1.55 1.02-3.03 2.09-4.55 3.14-34.3-125.7-155.12-218.58-285.47-252.75-22.81-5.98-46.13-8.94-69.6-9.4-23.77-90.59-106.18-157.42-204.23-157.42-116.61 0-211.15 94.54-211.15 211.15 0 54.5 20.66 104.17 54.56 141.64-15.57 26.82-27.9 56.11-36.15 87.57l-101.67 387.94c-34.44 131.45 44.18 265.9 175.61 300.36l50.74 13.29c-1.87 6.76 0.62 14.66 9.37 16.92 2.16 0.57 4.34 1.05 6.51 1.58l35.66 192.28-149.11 66.32-96.72 43.02-321.53 143.02-0.06 0.03q0.79 0.85 1.57 1.72 11.66 13.21 23.77 26.03 2.95 3.11 5.91 6.21c8.44 8.8 16.96 17.52 25.68 26.03q1.07 1.03 2.13 2.06 6.71 6.51 13.53 12.9 1.15 1.08 2.31 2.16 30.08 28.02 62.25 53.66 0.23 0.19 0.47 0.39 7.34 5.82 14.78 11.51 1.55 1.19 3.13 2.39 7.15 5.46 14.41 10.79 1.62 1.18 3.25 2.37 7.53 5.5 15.14 10.88 0.11 0.07 0.21 0.13 25.1 17.63 51.24 33.81 1.12 0.71 2.26 1.41 7.57 4.67 15.23 9.19 2.17 1.29 4.34 2.58 7.47 4.38 15.02 8.65 2.12 1.18 4.26 2.38 7.85 4.4 15.79 8.66 0.41 0.23 0.81 0.44 26.39 14.13 53.66 26.79 1.99 0.94 4 1.87 7.73 3.55 15.53 6.96 2.77 1.23 5.56 2.42 7.66 3.34 15.4 6.55 2.65 1.09 5.3 2.17 8.09 3.32 16.27 6.51 0.56 0.22 1.13 0.43 27.69 10.73 56.13 19.94 2.7 0.88 5.39 1.75 7.9 2.5 15.86 4.88 3.22 0.97 6.46 1.93 7.93 2.33 15.91 4.55 2.97 0.81 5.95 1.6 8.41 2.3 16.89 4.46 0.33 0.08 0.66 0.15c11.04 2.8 22.19 5.36 33.37 7.8q2.38 0.52 4.78 1.05 1.93 0.43 3.87 0.85 14.54 3.02 29.22 5.64c2.47 0.44 4.95 0.82 7.42 1.26q13.15 2.26 26.39 4.2 4.91 0.72 9.84 1.41c11.12 1.53 22.25 2.94 33.48 4.12q0.58 0.06 1.17 0.13 12.43 1.27 24.95 2.26 1.27 0.12 2.53 0.23 11.73 0.9 23.54 1.54 2.03 0.12 4.07 0.25 11.6 0.57 23.26 0.9 2.2 0.09 4.43 0.18 13.85 0.36 27.78 0.36c11.66 0 23.26-0.25 34.83-0.63q2.48-0.09 4.97-0.19 15.28-0.6 30.46-1.59c1.08-0.07 2.14-0.1 3.2-0.16 2.28-0.17 4.51-0.42 6.77-0.59q12.51-0.94 24.93-2.15 5.14-0.5 10.24-1.04c11.08-1.21 22.12-2.51 33.09-4.05q0.6-0.08 1.2-0.17 37.04-5.24 73.22-12.97 0.23-0.05 0.45-0.09 27.23-5.84 53.93-13.06 26.68-7.21 52.8-15.74 0.36-0.12 0.74-0.24 34.66-11.38 68.22-25.01 0.46-0.2 0.93-0.39c35.12-14.31 69.31-30.44 102.43-48.29q9.94-5.35 19.76-10.91 19.62-11.12 38.71-23.03 0.4-0.24 0.79-0.5c11.75-7.34 23.3-14.98 34.74-22.76 3.43-2.34 6.79-4.75 10.19-7.11 4.9-3.41 9.84-6.75 14.67-10.24 3.94-2.84 7.8-5.79 11.69-8.69q2.89-2.13 5.76-4.29 15.7-11.85 30.94-24.27 3.07-2.53 6.12-5.08c10.43-8.62 20.73-17.36 30.82-26.37q0.48-0.42 0.96-0.84 26.43-23.69 51.23-49.06 1.35-1.38 2.68-2.75 24.14-24.9 46.64-51.3 1.68-1.97 3.34-3.96c6-7.11 11.87-14.34 17.69-21.6 1.27-1.59 2.59-3.12 3.85-4.72 1.36-1.7 2.63-3.47 3.98-5.19q5.95-7.65 11.78-15.42c1.58-2.12 3.21-4.2 4.8-6.34q8.37-11.36 16.45-22.95 0.87-1.21 1.74-2.42z"/>
		<path id="&lt;Path&gt;" class="s2" d="m1932.69 1665.82l-56.31-23.26-371.82-153.62-155.65-64.32 15.81 85.27-0.04 0.01q0.07 0.24 0.13 0.5c7.2 38.82-102.9 91.79-245.93 118.32-143.02 26.52-264.81 16.55-272-22.27-0.54-2.92-0.33-5.95 0.41-9.02l-16.56-89.31-149.11 66.32-96.72 43.02-321.53 143.02-0.06 0.03q0.79 0.85 1.57 1.72 11.66 13.21 23.77 26.03 2.95 3.11 5.91 6.21c8.44 8.8 16.96 17.52 25.68 26.03q1.07 1.03 2.13 2.06 6.71 6.51 13.53 12.9 1.15 1.08 2.31 2.16 30.08 28.02 62.25 53.66 0.23 0.19 0.47 0.39 7.34 5.82 14.78 11.51 1.55 1.19 3.13 2.39 7.15 5.46 14.41 10.79 1.62 1.18 3.25 2.37 7.53 5.5 15.14 10.88 0.11 0.07 0.21 0.13 25.1 17.63 51.24 33.81 1.12 0.71 2.26 1.41 7.57 4.67 15.23 9.19 2.17 1.29 4.34 2.58 7.47 4.38 15.02 8.65 2.12 1.18 4.26 2.38 7.85 4.4 15.79 8.66 0.41 0.23 0.81 0.44 26.39 14.13 53.66 26.79 1.99 0.94 4 1.87 7.73 3.55 15.53 6.96 2.77 1.23 5.56 2.42 7.66 3.34 15.4 6.55 2.65 1.09 5.3 2.17 8.09 3.32 16.27 6.51 0.56 0.22 1.13 0.43 27.69 10.73 56.13 19.94 2.7 0.88 5.39 1.75 7.9 2.5 15.86 4.88 3.22 0.97 6.46 1.93 7.93 2.33 15.91 4.55 2.97 0.81 5.95 1.6 8.41 2.3 16.89 4.46 0.33 0.08 0.66 0.15c11.04 2.8 22.19 5.36 33.37 7.8q2.38 0.52 4.78 1.05 1.93 0.43 3.87 0.85 14.54 3.02 29.22 5.64c2.47 0.44 4.95 0.82 7.42 1.26q13.15 2.26 26.39 4.2 4.91 0.72 9.84 1.41c11.12 1.53 22.25 2.94 33.48 4.12q0.58 0.06 1.17 0.13 12.43 1.27 24.95 2.26 1.27 0.12 2.53 0.23 11.73 0.9 23.54 1.54 2.03 0.12 4.07 0.25 11.6 0.57 23.26 0.9 2.2 0.09 4.43 0.18 13.85 0.36 27.78 0.36c11.66 0 23.26-0.25 34.83-0.63q2.48-0.09 4.97-0.19 15.28-0.6 30.46-1.59c1.08-0.07 2.14-0.1 3.2-0.16 2.28-0.17 4.51-0.42 6.77-0.59q12.51-0.94 24.93-2.15 5.14-0.5 10.24-1.04c11.08-1.21 22.12-2.51 33.09-4.05q0.6-0.08 1.2-0.17 37.04-5.24 73.22-12.97 0.23-0.05 0.45-0.09 27.23-5.84 53.93-13.06 26.68-7.21 52.8-15.74 0.36-0.12 0.74-0.24 34.66-11.38 68.22-25.01 0.46-0.2 0.93-0.39c35.12-14.31 69.31-30.44 102.43-48.29q9.94-5.35 19.76-10.91 19.62-11.12 38.71-23.03 0.4-0.24 0.79-0.5c11.75-7.34 23.3-14.98 34.74-22.76 3.43-2.34 6.79-4.75 10.19-7.11 4.9-3.41 9.84-6.75 14.67-10.24 3.94-2.84 7.8-5.79 11.69-8.69q2.89-2.13 5.76-4.29 15.7-11.85 30.94-24.27 3.07-2.53 6.12-5.08c10.43-8.62 20.73-17.36 30.82-26.37q0.48-0.42 0.96-0.84 26.43-23.69 51.23-49.06 1.35-1.38 2.68-2.75 24.14-24.9 46.64-51.3 1.68-1.97 3.34-3.96c6-7.11 11.87-14.34 17.69-21.6 1.27-1.59 2.59-3.12 3.85-4.72 1.36-1.7 2.63-3.47 3.98-5.19q5.95-7.65 11.78-15.42c1.58-2.12 3.21-4.2 4.8-6.34q8.37-11.36 16.45-22.95 0.87-1.21 1.74-2.42z"/>
		<path id="&lt;Path&gt;" class="s3" d="m1504.56 1488.94c-3.99 11.04-8.65 21.85-13.8 32.28-20.61 41.76-48.7 79.07-77.04 116.19-9.44 12.37-18.92 24.71-28.15 37.2-15.24 20.59-30.17 42.3-36.15 67.2-5.95 24.92-1.13 53.97 18.19 70.8 7.95 6.91 17.33 11.01 27.34 12.87q4.15 0.76 8.42 1.03c19.87 1.27 41.35-5.21 58.86-15.43 10.91-6.38 21.05-13.96 31.03-21.78 6.65-5.21 13.22-10.53 19.91-15.67 5.03-3.86 10.1-7.62 15.32-11.15 5.21-3.55 10.57-6.85 16.15-9.85 4.64-2.47 9.57-4.65 14.66-6.46 5.09-1.83 10.35-3.27 15.65-4.3 6.38-1.23 12.82-1.84 19.15-1.75 6.31 0.1 12.51 0.93 18.39 2.56 9.81 2.72 18.73 7.74 25.84 15.51 17.82 19.48 18.11 48.62 19.99 74.95 2.14 29.86 7.85 60.13 22.75 86.08l1.2 1.87c3.94-2.84 7.8-5.79 11.69-8.69q2.89-2.13 5.76-4.29 15.7-11.85 30.94-24.27 3.07-2.53 6.12-5.08c10.43-8.62 20.73-17.36 30.82-26.37q0.48-0.42 0.96-0.84 26.43-23.69 51.23-49.06 1.35-1.38 2.68-2.75 24.14-24.9 46.64-51.3 1.68-1.97 3.34-3.96c6-7.11 11.87-14.34 17.69-21.6 1.27-1.59 2.59-3.12 3.85-4.72 1.36-1.7 2.63-3.47 3.98-5.19q5.95-7.65 11.78-15.42c1.58-2.12 3.21-4.2 4.8-6.34q8.37-11.36 16.45-22.95 0.87-1.21 1.74-2.42l-0.05-0.02-56.31-23.26z"/>
		<path id="&lt;Path&gt;" class="s3" d="m503.42 1694.44c38.34 65.18 105.02 113 179.07 128.43 38.85 8.1 84.49 5.47 111.09-24.02 15.61-17.32 22.03-41.59 20.95-64.9-2.07-45.18-30.1-85.78-64.81-114.78-20.91-17.47-44.23-31.51-68.1-44.73l-96.72 43.02-98.71 43.92c5.37 11.33 11 22.46 17.23 33.06z"/>
		<path id="&lt;Path&gt;" class="s3" d="m1124.61 2041.5c5.3-36.82 18.73-72.78 17.35-109.95-1.36-37.16-24.16-77.86-61.11-82.06-30.46-3.48-57.69 18.51-78 41.47-58.18 65.74-94.4 151.4-159.93 208.56q14.54 3.02 29.22 5.64c2.47 0.44 4.95 0.82 7.42 1.26q13.15 2.26 26.39 4.2 4.91 0.72 9.84 1.41c11.12 1.53 22.25 2.94 33.48 4.12q0.58 0.06 1.17 0.13 12.43 1.27 24.95 2.26 1.27 0.12 2.53 0.23 11.73 0.9 23.54 1.54 2.03 0.12 4.07 0.25 11.6 0.57 23.26 0.9 2.2 0.09 4.43 0.18 13.85 0.36 27.78 0.36 17.48-0.03 34.83-0.63 2.48-0.09 4.97-0.19 15.28-0.6 30.46-1.59c1.08-0.07 2.14-0.1 3.2-0.16-11.34-22.78-13.58-52.06-9.85-77.93z"/>
		<path id="&lt;Path&gt;" class="s4" d="m1060.73 1320.84c17.02-5.66 9.73-32.72-7.44-27.01-40.1 13.36-84.43 13.52-126.22 11.74-44.03-1.87-88.34-7.23-131.07-18.31-8.71-2.24-14.92 3.34-16.81 10.08-1.87 6.76 0.62 14.66 9.37 16.92 2.16 0.57 4.34 1.05 6.51 1.58 43.08 10.58 87.79 15.88 132 17.73 44.11 1.87 91.35 1.35 133.66-12.73z"/>
		<path id="&lt;Path&gt;" class="s4" d="m825.77 803.19q-39.24 33.52-78.49 67.05c-13.11 11.21-27.1 21.36-31.51 39.21-4.23 17.14 0.51 33.91 11.54 47.35 3.67 4.47 7.53 8.81 11.29 13.21q18.86 22.08 37.73 44.16c11.72 13.72 31.45-6.15 19.81-19.81q-14.96-17.49-29.91-34.99c-8.98-10.51-25.59-23.99-24.02-39.36 1.36-13.26 15.5-21.96 24.87-29.97q23.32-19.92 46.64-39.84 15.93-13.61 31.85-27.21c13.71-11.72-6.16-31.45-19.8-19.8z"/>
		<path id="&lt;Path&gt;" class="s4" d="m986.64 1031.89c-23 39.8-69.33 60.65-114.39 50.54-17.56-3.93-25.06 23.05-7.46 27 57.25 12.85 116.58-12.48 146.04-63.41 9.02-15.63-15.16-29.76-24.19-14.13z"/>
		<path id="&lt;Path&gt;" class="s5" d="m723 789.82c9.79 2.96 21.48-7.02 26.11-22.32 4.64-15.28 0.45-30.08-9.34-33.05-9.79-2.96-21.48 7.02-26.11 22.32-4.64 15.28-0.44 30.09 9.34 33.05z"/>
		<path id="&lt;Path&gt;" class="s5" d="m1005.78 783.97c-9.78-2.97-21.49 7.02-26.11 22.3-4.63 15.3-0.45 30.08 9.34 33.05 9.79 2.98 21.47-7.02 26.11-22.3 4.63-15.29 0.45-30.09-9.34-33.05z"/>
		<path id="&lt;Compound Path&gt;" class="s5" d="m695 512.82c64.2 71.99 227.48 207.89 543.72 240.22 0 0-93.38 132.15-17.43 202.32 7.24-26.48 22.36-53.7 44.97-77.46 29.06-30.5 64.39-49 97.23-54.01l18.79-36.48c8.54-17.8 15.16-35.28 20.38-52.51 10.96 4.61 23.16 8.43 36.25 11.08 54.35 11.03 102.82-1.78 108.26-28.62 5.05-24.89-28.75-53.09-77.08-65.83 43.35-30.1 66.64-71 52.19-93.11-14.96-22.93-64.75-16.93-111.18 13.4-1.55 1.02-3.03 2.09-4.55 3.14-34.3-125.7-155.12-218.58-285.47-252.75-22.81-5.98-46.13-8.94-69.6-9.4-23.77-90.59-106.18-157.42-204.23-157.42-116.61 0-211.15 94.54-211.15 211.15 0 54.5 20.66 104.17 54.56 141.64 1.42 1.55 2.9 3.06 4.36 4.59q0 0.03-0.02 0.05z"/>
		<path id="&lt;Path&gt;" class="s4" d="m1310.46 995.97q-1.25-1.26-2.41-2.62c-0.21-0.41-1.51-2.29-1.72-2.67-0.27-0.48-1.3-3.02-1.37-2.98-0.38-1.1-0.75-2.21-1.05-3.35-0.11-0.43-0.53-2.87-0.65-3.26q-0.19-1.92-0.25-3.83-0.05-2.55 0.15-5.09 0.07-0.92 0.16-1.83 0.06-0.33 0.17-0.97c3.28-14.85 9.29-26.49 19.95-37.49q0.25-0.24 0.49-0.47c1.04 0.53 2.13 0.96 3.13 1.54 2.86 1.66 5.44 3.75 8.25 5.45-0.12-0.07-0.18-0.1-0.29-0.16q0.15 0.1 0.27 0.19l1.73 1.45q1.87 1.62 3.63 3.36c2.37 2.3 4.55 4.76 6.66 7.3q0.02 0.01 0.03 0.04l1.05 1.43q1.56 2.2 2.98 4.49 2.62 4.2 4.71 8.68l0.38 0.82c0.1 0.23 0.09 0.21 0.15 0.35l0.18 0.44q0.9 2.31 1.64 4.66 1.58 4.94 2.5 10.03c1.35 7.21 10.47 11.97 17.23 9.77 7.72-2.5 11.21-9.49 9.77-17.23-4.4-23.76-19.03-45.84-38.87-60.02q4.88-1.97 10.23-3.17c0.42-0.09 3.32-0.52 3.62-0.63q1.99-0.21 4.01-0.27c1.62-0.03 3.23 0.09 4.85 0.12q0.51 0.06 0.78 0.08 0.67 0.12 1.35 0.25 2.26 0.47 4.44 1.18 0.61 0.21 1.21 0.45 0.24 0.11 0.68 0.32 1.93 1.14 3.87 2.29c0.08 0.06 0.12 0.07 0.2 0.13l1.37 1.23c5.56 5.13 14.3 5.51 19.81 0 5.19-5.18 5.58-14.65 0-19.8-22.5-20.72-55.8-16.23-80.24-1.38-27.05 16.44-48.17 45.86-50.13 78.01-0.96 15.76 4.21 31.78 15.55 42.96 12.86 12.65 32.68-7.14 19.8-19.8z"/>
		<path id="&lt;Path&gt;" class="s6" d="m713.83 414.55c7.96-2.2 10.96-9.72 9.77-17.22-9.62-61.28 26.26-123.07 84.08-145.28 7.05-2.71 11.91-9.43 9.77-17.23-1.86-6.75-10.13-12.51-17.23-9.77-34.08 13.1-63.3 36.3-82.48 67.56-20.61 33.59-27.2 73.51-21.14 112.16 1.17 7.48 10.52 11.63 17.23 9.78z"/>
	</g>
</svg>