<svg width="1175" height="1175" viewBox="0 0 1175 1175" fill="none" xmlns="http://www.w3.org/2000/svg">
<circle cx="586.893" cy="586.891" r="191.5" fill="#92D600"/>
<rect x="524.393" y="157.391" width="126" height="430" fill="#92D600"/>
<rect x="650.393" y="1017.39" width="126" height="430" transform="rotate(-180 650.393 1017.39)" fill="#92D600"/>
<rect x="587.393" y="650.391" width="126" height="430" transform="rotate(-90 587.393 650.391)" fill="#92D600"/>
<rect x="157.393" y="650.391" width="126" height="430" transform="rotate(-90 157.393 650.391)" fill="#92D600"/>
<rect x="317.832" y="246.5" width="126" height="430" transform="rotate(-30 317.832 246.5)" fill="#92D600"/>
<rect x="856.951" y="928.281" width="126" height="430" transform="rotate(150 856.951 928.281)" fill="#92D600"/>
<rect x="618.891" y="641.949" width="126" height="430" transform="rotate(-120 618.891 641.949)" fill="#92D600"/>
<rect x="246.5" y="856.949" width="126" height="430" transform="rotate(-120 246.5 856.949)" fill="#92D600"/>
<rect x="183.502" y="426.949" width="126" height="430" transform="rotate(-60 183.502 426.949)" fill="#92D600"/>
<rect x="991.285" y="747.832" width="126" height="430" transform="rotate(120 991.285 747.832)" fill="#92D600"/>
<rect x="641.953" y="618.891" width="126" height="430" transform="rotate(-150 641.953 618.891)" fill="#92D600"/>
<rect x="426.953" y="991.281" width="126" height="430" transform="rotate(-150 426.953 991.281)" fill="#92D600"/>
</svg>
