<svg version="1.2" xmlns="http://www.w3.org/2000/svg" viewBox="0 0 500 500" width="500" height="500">
	<style>
		.s0 { fill: #da9d52 } 
		.s1 { fill: #fea68e } 
		.s2 { fill: #e7532e } 
		.s3 { fill: #b54124 } 
		.s4 { fill: none;stroke: #46397a;stroke-miterlimit:10 } 
		.s5 { fill: #46397a } 
		.s6 { fill: none;stroke: #b54124;stroke-miterlimit:10 } 
		.s7 { fill: #6902b1 } 
		.s8 { fill: #4f0185 } 
		.s9 { fill: #03aa7e } 
		.s10 { fill: #fd6887 } 
		.s11 { fill: #fed348 } 
		.s12 { fill: #770156 } 
		.s13 { fill: #fe6887 } 
		.s14 { fill: #02a97d } 
		.s15 { fill: #ffda4c } 
		.s16 { fill: #022b65 } 
		.s17 { fill: #ffffff } 
	</style>
	<g id="BACKGROUND">
	</g>
	<g id="OBJECTS">
		<g id="&lt;Group&gt;">
			<path id="&lt;Path&gt;" class="s0" d="m391.63 160.48l108.37 182.85v149.31l-170.57-9.51-13.22-252.43 54.98-72.76 22.9 2.54"/>
			<path id="&lt;Path&gt;" class="s1" d="m154.1 312.75l-9.26 17.46c0 0-44.11-8.35-67.32-12.53-23.21-4.18-26.93 1.45-26.93 3.04 0 1.6 6.04 5.32 10.68 5.78 4.64 0.46 1.86 19.96 4.18 24.14 2.32 4.18 80.32 41.79 99.81 45.96 19.5 4.18 39.91-78.92 39.91-78.92l-49.19-4.93"/>
			<path id="&lt;Path&gt;" class="s2" d="m500 500h-500v-21.84h500z"/>
			<path id="&lt;Path&gt;" class="s1" d="m218.37 156.6c0 0-4.47 1.49-4.69 13.42-0.21 11.93 5.54 58.36 25.99 61.55 20.44 3.2 36.21-8.94 36.21-8.94l-6.39 18.95-22.37 3.41c0 0 5.97 22.15 37.91 21.51 31.95-0.63 46.86-21.08 46.86-21.08l-27.47-8.1-4.69-45.58c0 0 8.73-2.77 9.37-14.69 0.64-11.93-10.22-17.26-17.46-7.88l-7.67-25.99z"/>
			<path id="&lt;Path&gt;" class="s2" d="m251.53 172.97l-4.1 26.22 9.31-4.5z"/>
			<path id="&lt;Path&gt;" class="s2" d="m275.88 222.63l16.09-8.03-21.43 23.85z"/>
			<path id="&lt;Path&gt;" class="s3" d="m218.37 156.6c0 0 16.4 10.44 38.37 7.33 21.97-3.11 18.26-8.25 24.52-8.49 6.26-0.24 8.22 6 6.56 10.35-1.66 4.36-6.42 9.95-0.62 18.03 5.8 8.08 5.18 8.49 4.77 13.26-0.42 4.76-0.33 8.91 0.25 9.74 0.57 0.82 4.72-1.04 4.72-1.04 0 0-2.9-2.9-1.87-7.46 1.04-4.56 2.28-7.91 0-12.24-2.28-4.33-6.51-9.31-4.97-13.11 1.54-3.8 3.78-8.25 9.74-7.18 5.96 1.08 11.97 9.79 6.76 18.22-5.21 8.44-8.01 6.85-8.01 6.85l5.83 46.46c0 0 65.24 21.29 76.01 25.43 10.77 4.15 11.19 7.05 11.19 7.05 0 0 0.83-22.58-9.74-33.57-10.57-10.98-15.12-5.17-17.4-15.33-2.28-10.15 1.03-21.96-5.8-27.97-6.84-6-6.43-5.17-6.43-5.17 0 0 9.53 0.41 12.43 5.8 2.9 5.38-0.41 10.97 3.32 19.05 3.73 8.09 4.56 9.74 4.56 9.74l5.38-1.65c0 0-6.01-2.9-6.42-13.26-0.41-10.36 2.49-16.2-7.66-21.36-10.16-5.16-14.51-1.22-22.79-4.33 0 0 2.48 1.03 7.45-1.25 4.98-2.27 13.06-1.03 15.96 1.04 2.9 2.07 4.55 3.11 4.55 3.11v-6.01c0 0-2.27-8.49-16.16-7.67-13.88 0.83-21.33 4.77-27.55 0.21-6.21-4.56-5.18-25.9-24.24-31.28-19.06-5.39-23.62 4.29-37.29 3.28-13.67-1-41.31 5.97-45.42 13.42z"/>
			<path id="&lt;Path&gt;" class="s4" d="m243.94 183.1c0 7.91-6.41 14.32-14.32 14.32-7.9 0-14.32-6.41-14.32-14.32 0-7.91 6.42-14.32 14.32-14.32 7.91 0 14.32 6.41 14.32 14.32z"/>
			<path id="&lt;Path&gt;" class="s4" d="m284.7 174.8c0 7.9-6.42 14.31-14.32 14.31-7.91 0-14.32-6.41-14.32-14.31 0-7.91 6.41-14.32 14.32-14.32 7.9 0 14.32 6.41 14.32 14.32z"/>
			<path id="&lt;Path&gt;" class="s5" d="m236.07 185.02c0 0.91-0.73 1.64-1.64 1.64-0.91 0-1.65-0.73-1.65-1.64 0-0.91 0.74-1.65 1.65-1.65 0.91 0 1.64 0.74 1.64 1.65z"/>
			<path id="&lt;Path&gt;" class="s5" d="m270.38 177.42c0 0.9-0.74 1.64-1.65 1.64-0.91 0-1.64-0.74-1.64-1.64 0-0.91 0.73-1.65 1.64-1.65 0.91 0 1.65 0.74 1.65 1.65z"/>
			<path id="&lt;Path&gt;" class="s4" d="m243.94 180.63l12.36-3.21"/>
			<path id="&lt;Path&gt;" class="s6" d="m253.84 205.83c0 0 5.14 4.58 11.06 2.23 5.92-2.34 5.64-11.95 5.64-11.95"/>
			<path id="&lt;Path&gt;" class="s7" d="m331.89 245.42c0 0 81 12.92 81.85 53.59 0.86 40.67-20.12 179.3-20.12 179.3h-106.3z"/>
			<path id="&lt;Path&gt;" class="s8" d="m331.89 245.42l13.55 68.7-32.02 29.21z"/>
			<g id="&lt;Group&gt;">
				<g id="&lt;Group&gt;">
					<path id="&lt;Path&gt;" class="s9" d="m387.46 297.59c-0.74-5.87-2.73-11.32-6.33-16.06-2.33-3.07-7.31-8.95-11.72-8.69-11.03 0.65 5.38 24.63 7.62 27.5q0.91-1.18 1.82-2.35c-4.57-2.66-15.92-9.23-20.91-4.47-5.01 4.79 3.48 10.48 7.39 11.72 1.52 0.48 4.68 0.45 5.88 1.32 1.56 1.12 0.52 1.55-0.19 3.49-0.85 2.34-1.31 5.18 0.24 7.34 1.74 2.44 4.81 2.7 7.42 1.62 3.79-1.58 5.39-5.83 7.38-9.07q-1.3 0-2.59 0c1.74 3.59 8.48 7.96 11.95 3.75 3.38-4.12-1.84-10.9-5.03-13.26-1.55-1.14-3.05 1.46-1.51 2.59 1.7 1.26 5.54 5.39 4.35 7.94-1.72 3.69-6.28-0.7-7.17-2.54-0.51-1.05-2.04-0.89-2.59 0-0.58 0.94-1.09 1.9-1.66 2.84q-0.67 1.39-1.64 2.58-1.17 2.8-3.76-0.29c-3.56-1.78-3.08-1.28-1.83-4.11 0.26-0.61 0.75-1.23 0.87-1.89 0.4-2.23-0.94-3.12-2.8-3.76-1.64-0.57-3.54-0.64-5.23-1.08-1.23-0.33-2.39-0.69-3.52-1.26-2.3-1.18-2.71-1.27-2.25-4.05 0.56-3.33 1.44-2.37 4.05-1.74 1.06 0.26 2.1 0.59 3.13 0.94 3 1.01 5.79 2.39 8.51 3.98 1.57 0.91 2.81-1.09 1.82-2.36-2.64-3.37-4.96-6.91-6.92-10.71-1.1-2.14-6.52-13.32 0.3-10.21 6.91 3.16 11.05 13.37 11.92 20.29 0.23 1.89 3.23 1.91 3 0z"/>
				</g>
			</g>
			<g id="&lt;Group&gt;">
				<g id="&lt;Group&gt;">
					<path id="&lt;Path&gt;" class="s9" d="m308.45 455.17c3.02-6.63 10.35-14.03 18.27-13.97 4.38 0.03 1.94 1.91-0.09 4.03-1.46 1.52-2.99 2.96-4.54 4.39-3.32 3.06-6.77 5.96-10.23 8.87-1.35 1.13 0.37 3.13 1.82 2.35 4.87-2.61 10.43-3.94 15.96-3.03 2.64 0.43 3.65 0.03 2.74 3.01-0.8 2.62-1.52 2.64-3.99 3.37-2.96 0.89-6.02 1.06-9.09 0.91-1.93-0.09-1.92 2.91 0 3 4.43 0.21 22.25-1.72 17.09-10.27-1.81-3.01-6.62-3.23-9.73-3.3-5.12-0.11-10.01 1.32-14.5 3.72q0.91 1.18 1.82 2.36c2.8-2.36 25.68-19.35 16.5-22.42-4.17-1.4-10.45 1.36-13.98 3.48-4.73 2.84-8.35 6.97-10.64 11.98-0.79 1.75 1.79 3.28 2.59 1.52z"/>
				</g>
			</g>
			<g id="&lt;Group&gt;">
				<g id="&lt;Group&gt;">
					<path id="&lt;Path&gt;" class="s9" d="m384.34 446.53c-2.06-2.27-3.89-4.72-5.28-7.46-0.78-1.54-2.06-3.8-2.2-5.55q-0.2-0.77-0.41-1.54 2.5-4.23 3.87-1.37c1.69 1.4 2.48 4.4 3.74 6.18 1.06 1.52 2.24 2.62 3.81 3.59 1.23 0.76 2.39-0.49 2.21-1.69-0.52-3.49-1.87-7.14-1.55-10.68q0.53-1.9 1.06-3.8 2.88-1.46 2.64 1.37c0.74 1.62 0.37 4.44 0.29 6.16-0.08 1.93 2.92 1.92 3 0 0.15-3.33 0.22-14.38-6.13-11.4-6.69 3.13-2.97 14-2.21 19.14q1.11-0.84 2.21-1.69c-3.01-1.86-9.64-17.99-15.17-10.86-2.06 2.67-0.49 6.95 0.5 9.65 1.68 4.54 4.26 8.51 7.5 12.07 1.3 1.44 3.41-0.69 2.12-2.12z"/>
				</g>
			</g>
			<path id="&lt;Path&gt;" class="s7" d="m247.12 244.99l-42.93 233.32-52.39-0.15c0 0 10.15-179.51 28.22-203.87 18.07-24.36 64.09-28.84 67.1-29.3z"/>
			<path id="&lt;Path&gt;" class="s7" d="m247.12 244.99c0 0-48.61-3.85-67.1 17.44-18.5 21.29-28.22 50.45-28.22 50.45l57.91 8.33z"/>
			<g id="&lt;Group&gt;">
				<g id="&lt;Group&gt;">
					<path id="&lt;Path&gt;" class="s9" d="m227.09 268.26c0.41-6.56-2.71-16.97-10.97-17.13-9.14-0.18-0.71 15.24 1.07 18.62q0.85-1.1 1.7-2.21c-3.18-0.99-7.09-2.31-10.45-1.66-0.52 0.1-0.89 0.58-1.05 1.05-0.8 2.41 1.76 4.91 3.55 6.19 2.84 2.04 6.2 2.55 9.57 1.85 1.89-0.39 1.09-3.28-0.8-2.89-2.53 0.52-7.06 0-8.41-2.71q-1.3-1.06 0.15-0.53 1.12 0.23 2.25 0.42 2.22 0.49 4.39 1.18c1.31 0.4 2.28-1.1 1.69-2.21-1.23-2.33-2.35-4.71-3.31-7.17-0.32-0.82-0.92-1.9-0.99-2.78q-0.63-1.21 0.54-2.33 0.31-2.94 2.57-0.89c4.68 2.64 5.81 8.26 5.5 13.2-0.13 1.93 2.87 1.92 3 0z"/>
				</g>
			</g>
			<g id="&lt;Group&gt;">
				<g id="&lt;Group&gt;">
					<path id="&lt;Path&gt;" class="s9" d="m194.37 394.23c1.02-6.22-3.22-20.07-12.18-16.55-7.68 3.02-2.54 17.22 3.04 19.94q0.58-1.37 1.15-2.74c-3.92-1.2-10.5-2.03-11.81 3.36-1.37 5.66 5.54 8.24 9.87 7.95 1.92-0.12 1.93-3.12 0-3q-0.77 0.05-1.54 0.1-8.17-6.43-2.08-6.12c1.97-0.26 2.94 0.04 4.77 0.61 1.59 0.49 2.7-1.99 1.15-2.75-2.23-1.08-3.61-3.02-4.29-5.41-0.08-0.28-1.17-5-0.74-5.84q3.19-0.81 6.38-1.63 1.95 1.93 2.89 4.5c0.8 2.2 0.88 4.48 0.5 6.79-0.31 1.88 2.58 2.7 2.89 0.79z"/>
				</g>
			</g>
			<path id="&lt;Path&gt;" class="s8" d="m247.12 244.99l-26.03 141.47-19.61-59.4 17.03-8.89-15.55-48.37z"/>
			<path id="&lt;Path&gt;" class="s1" d="m346.44 337.78c0 0-10.06 12.64-20.59 11.23-10.53-1.4-30.42-25.5-39.54-35.8-9.13-10.29-16.15-18.48-26.91-20.12-10.77-1.64-7.96 2.81-4.68 5.38 3.27 2.58 5.61 3.75 5.61 3.75 0 0-14.04-7.73-25.03-5.15-11 2.57-15.68 6.55-12.17 9.59 3.51 3.04 7.96 5.85 7.96 5.85 0 0-2.81 11.23 1.87 16.61 4.68 5.39 38.27 94.07 81.14 102.72 42.87 8.66 92.03-50.65 96.35-82.53z"/>
			<path id="&lt;Path&gt;" class="s10" d="m240.9 296.23c0 0-3.1-13.17-14.26-13.26-11.16-0.1-12.96 7.75-12.96 7.75l8.55 12.79c0 0 0.15 2.64 2.07 4.13 1.92 1.49 6.79 4.87 6.79 4.87 0 0-2.61 7.13-0.37 11.87 2.24 4.74 5.75 11.26 5.75 11.26l-48.28 18.76-2.48-7.65-47.13-9.1-13.23 9.3v-21.5l8.68 6.62 46.3 4.75c0 0-15.5-44.14-14.67-44.08 0.82 0.05 44.24-15.25 44.24-15.25l3.78 7.86c0 0 4.48-5.58 13.37-5.79 8.89-0.21 19.65 9.45 19.34 17.64z"/>
			<g id="&lt;Group&gt;">
				<g id="&lt;Group&gt;">
					<path id="&lt;Path&gt;" class="s11" d="m204.03 313.01c-2.43-2.55-5.36-4.49-8.74-5.55-2.16-0.68-6.75-1.92-8.73-0.24-1.76 1.49-0.53 3.6 0.88 4.7 3.81 3 8.36 5.36 12.51 7.86q0.18-1.37 0.36-2.74c-3.23 0.73-9.73 3.45-8.87 7.88 0.87 4.53 10.66 2.61 13.6 1.95 1.89-0.42 1.09-3.31-0.79-2.89-1.03 0.22-9.15 1.7-9.68 0.28-0.39-1.05 2.41-2.84 3.03-3.17 1.09-0.58 2.31-0.89 3.51-1.16 1.29-0.29 1.42-2.1 0.35-2.74q-3.36-2.03-6.68-4.11-1.66-1.04-3.31-2.1c0.08 0.05-3.11-1.7-2.95-1.4 0.04 0.09 6.07 0.76 6.99 1.12 2.48 0.97 4.57 2.51 6.4 4.43 1.33 1.4 3.45-0.72 2.12-2.12z"/>
				</g>
			</g>
			<g id="&lt;Group&gt;">
				<g id="&lt;Group&gt;">
					<path id="&lt;Path&gt;" class="s11" d="m206.36 314.02c-0.45-2.28-0.42-4.54 0.24-6.78 0.32-1.08 0.82-2.17 1.41-3.13q0.65-0.87 1.3-1.73 3.32 1.16 2.48 3.45c-0.08 3.27-2.73 5.4-1.95 8.82 0.23 1.03 1.37 1.27 2.2 0.9q3.29-2.44 3.55 2.53-1.36 1.26-3.06 1.97c-1.73 0.86-0.21 3.45 1.51 2.59 2.92-1.44 7.22-4.74 5.39-8.56-1.72-3.58-6.14-2.35-8.9-1.12q1.1 0.44 2.2 0.89c-0.8-3.55 2.96-7.29 2.27-11.21-0.4-2.32-2.31-4.53-4.87-4.16-6.43 0.93-7.6 11.56-6.67 16.34 0.37 1.89 3.26 1.09 2.9-0.8z"/>
				</g>
			</g>
			<path id="&lt;Path&gt;" class="s12" d="m56.61 478.31l-13.32-68.54 10.44-2.88 6.12 28.09 59.76-2.28 8.43-21.85 11.73 4.69-14.42 62.62-8.98-0.7 5.76-38.88-63 4.02 7.2 35.71z"/>
			<path id="&lt;Path&gt;" class="s13" d="m59.85 434.98l-14.04-68.02c0 0-2.67-7.04 15.13-12.56 17.79-5.53 76.8-5.53 77.39 10.78 0.59 16.31-18.68 69.8-18.68 69.8z"/>
			<path id="&lt;Path&gt;" class="s12" d="m131.79 362.72c0 4.18-17.81 7.58-39.78 7.58-21.97 0-39.78-3.4-39.78-7.58 0-4.19 17.81-7.58 39.78-7.58 21.97 0 39.78 3.39 39.78 7.58z"/>
			<path id="&lt;Path&gt;" class="s14" d="m66.18 368.48c0 0 2.43-8.06-5.4-18.66-7.82-10.6-10.43-8.64-13.53-18.42-3.1-9.78-3.1-15.14-7.99-18.17-4.89-3.02-10.92-4.17-12.06-5.96-1.14-1.79-2.77-5.22-2.77-5.22 0 0-4.08 7.67 2.28 13.05 6.36 5.38 10.76 5.87 11.25 12.55 0.49 6.68-3.42 10.6 1.14 17.93 4.56 7.34 12.4 19.4 13.13 19.73 0.73 0.32 9.89 3.57 13.95 3.17z"/>
			<path id="&lt;Path&gt;" class="s14" d="m77.74 370.3c0 0-15.51-12.49-13.38-27.98 2.13-15.49-0.97-22.5-8.31-34.23-7.33-11.74-15.65-22.88-15.65-30.6 0-7.71-1.46-12.93-1.46-12.93 0 0 18.09 17.28 21.68 30.48 3.59 13.21 8.48 28.53 15.98 34.4 7.49 5.87 9.94 9.46 12.06 18.59 2.12 9.13 2.44 8.83 2.44 13.62 0 4.8-1.14 8.65-1.14 8.65z"/>
			<path id="&lt;Path&gt;" class="s14" d="m99.08 370.3c0 0-3.8-20.48 3.79-28.07 7.59-7.59-7.88-25.4 0-41.16 7.88-15.76 10.8-17.09 12.85-23.58 2.04-6.48 6.42-12.93 6.42-12.93 0 0-1.75 9.64-1.46 18.41 0.29 8.76 0 21.31-3.8 29.78-3.79 8.46-3.79 11.38-1.75 21.31 2.04 9.92 7.13 11.46 3.9 23.1-3.24 11.63-6.23 13.14-6.23 13.14z"/>
			<g id="&lt;Group&gt;">
				<g id="&lt;Group&gt;">
					<path id="&lt;Path&gt;" class="s11" d="m51.16 389.61c28.24 1.33 57.76 4.99 85.52-2 1.87-0.47 1.08-3.36-0.8-2.89-27.46 6.91-56.79 3.21-84.72 1.89-1.93-0.09-1.92 2.91 0 3z"/>
				</g>
			</g>
			<g id="&lt;Group&gt;">
				<g id="&lt;Group&gt;">
					<path id="&lt;Path&gt;" class="s11" d="m57.27 411.8c5.27 2.09 10.73 2.06 16.32 2.06q10.47 0.01 20.94 0 9.97-0.01 19.94-0.04c3.24-0.02 8.98 1.45 11.24-1.5 0.42-0.55 0.16-1.36-0.24-1.82q-0.12-0.13-0.23-0.27c-1.27-1.46-3.39 0.67-2.12 2.12q0.11 0.14 0.23 0.27-0.12-0.91-0.23-1.82c-0.51 0.67-6.65 0.01-7.66 0.01q-3.98 0.02-7.97 0.03-8.48 0.02-16.95 0.02c-10.25 0.01-22.79 1.89-32.47-1.95-1.79-0.71-2.57 2.19-0.8 2.89z"/>
				</g>
			</g>
			<path id="&lt;Path&gt;" class="s15" d="m174.67 434.51c0 0-3.4 20.04 1.26 30.96 4.66 10.91 12.16 12.84 12.16 12.84l51.6-0.15c0 0 12.92-16.25 14.09-30.57 1.18-14.31 1.18-14.31 1.18-14.31z"/>
			<path id="&lt;Path&gt;" class="s14" d="m190.41 434.27c0 0-11.91-29.09-16.12-31.03-4.22-1.93-18.26 2.64-24.23 6.33-5.97 3.68-10.4 27.74-10.29 28.09 0.1 0.35 6.02 1.66 15.18-4.96 9.15-6.63 15.48-19.8 16.88-22.35 1.41-2.54 1.41-2.54 1.41-2.54 0 0 2.98 1.73 4.38 4.55 1.41 2.82 10.47 22.62 10.47 22.62z"/>
			<path id="&lt;Path&gt;" class="s14" d="m193.24 434.22c0 0 5.73-33.43 9.72-38.88 3.99-5.44 16.1-12.55 26.99-9.17 10.88 3.38 15.56 15.67 15.56 15.67 0 0-17.1 7.83-28.18 5.05-11.09-2.77-13.14-4.1-13.14-4.1l-6.76 31.37z"/>
			<path id="&lt;Path&gt;" class="s14" d="m209.71 433.97c0 0 16.95-18.62 20.4-20.71 3.46-2.1 10.48-5.92 18.12-1.23 7.64 4.68 15.37 12.94 15.2 13.31-0.16 0.37-9.78 4.93-18.77 1.48-9-3.46-12.94-11.34-12.94-11.34l-17.51 18.49"/>
			<path id="&lt;Path&gt;" class="s14" d="m243.55 434.22c0 0 2.96-4.45 12.32-2.11 9.37 2.35 13.66 18.86 13.66 18.86 0 0-20.09-2.46-24.02-6.78-3.93-4.31-1.96-9.97-1.96-9.97z"/>
			<g id="&lt;Group&gt;">
				<g id="&lt;Group&gt;">
					<path id="&lt;Path&gt;" class="s11" d="m142.48 434.95c9.41-9.63 13.7-25.52 27.95-29.34 0.47-0.12 0.27-0.85-0.2-0.72-14.43 3.86-18.78 19.8-28.28 29.53-0.34 0.34 0.19 0.87 0.53 0.53z"/>
				</g>
			</g>
			<g id="&lt;Group&gt;">
				<g id="&lt;Group&gt;">
					<path id="&lt;Path&gt;" class="s11" d="m164.11 407.64c-3.57 5.55-1.87 12.13-2.63 18.31-0.06 0.48 0.69 0.48 0.75 0 0.74-6.03-0.96-12.51 2.52-17.93 0.27-0.4-0.38-0.78-0.64-0.38z"/>
				</g>
			</g>
			<g id="&lt;Group&gt;">
				<g id="&lt;Group&gt;">
					<path id="&lt;Path&gt;" class="s11" d="m154.83 416.19c-1.07 2.7-4.42 2.72-6.71 3.67-1.75 0.73-3.28 1.75-4.72 2.97-0.36 0.32 0.17 0.85 0.54 0.53 2.56-2.19 5.27-2.92 8.36-4.04 1.54-0.55 2.64-1.41 3.25-2.93 0.18-0.45-0.55-0.64-0.72-0.2z"/>
				</g>
			</g>
			<g id="&lt;Group&gt;">
				<g id="&lt;Group&gt;">
					<path id="&lt;Path&gt;" class="s11" d="m152.06 411.2c2.11-1 3.83-0.76 6.02-0.89 1.35-0.09 2.7-0.55 4.01-0.87 0.47-0.11 0.27-0.83-0.2-0.72-0.85 0.2-1.71 0.43-2.56 0.61-1.22 0.26-2.2 0.11-3.41 0.14-1.5 0.04-2.89 0.44-4.24 1.08-0.44 0.2-0.06 0.85 0.38 0.65z"/>
				</g>
			</g>
			<g id="&lt;Group&gt;">
				<g id="&lt;Group&gt;">
					<path id="&lt;Path&gt;" class="s11" d="m203.44 397.43c6.17-3.91 14.45-5.41 21.72-4.83 4.1 0.33 7.28 3.11 10.94 4.7 3.02 1.32 6.13 2.35 9.02 3.98 0.42 0.24 0.8-0.41 0.38-0.65-3.84-2.17-8.12-3.3-11.98-5.41-2.84-1.54-5.04-3.1-8.36-3.37-7.37-0.59-15.83 0.96-22.1 4.93-0.41 0.26-0.03 0.91 0.38 0.65z"/>
				</g>
			</g>
			<g id="&lt;Group&gt;">
				<g id="&lt;Group&gt;">
					<path id="&lt;Path&gt;" class="s11" d="m219.84 392.87c3.52 0.58 4.46 4.51 6.65 6.79 2.05 2.12 4.67 3.82 7.12 5.45 0.4 0.27 0.78-0.38 0.38-0.65-3.4-2.25-6.75-4.5-8.93-8.01-1.25-2.01-2.53-3.89-5.02-4.3-0.47-0.08-0.67 0.64-0.2 0.72z"/>
				</g>
			</g>
			<g id="&lt;Group&gt;">
				<g id="&lt;Group&gt;">
					<path id="&lt;Path&gt;" class="s11" d="m228.1 393.15c2.18-0.26 4.3-1.09 6.48-1.22 1.68-0.11 2.88-0.23 4.19-1.39 0.36-0.32-0.17-0.85-0.53-0.53-1.53 1.35-3.17 0.95-4.98 1.31-1.74 0.34-3.39 0.87-5.16 1.08-0.48 0.05-0.48 0.81 0 0.75z"/>
				</g>
			</g>
			<g id="&lt;Group&gt;">
				<g id="&lt;Group&gt;">
					<path id="&lt;Path&gt;" class="s11" d="m209.82 394.09c3.52 3.33 5.72 8.25 10.69 9.69 0.46 0.13 0.66-0.59 0.19-0.73-4.79-1.38-6.96-6.28-10.35-9.49-0.35-0.33-0.88 0.2-0.53 0.53z"/>
				</g>
			</g>
			<g id="&lt;Group&gt;">
				<g id="&lt;Group&gt;">
					<path id="&lt;Path&gt;" class="s11" d="m231.7 414.74c6.87-2.78 15.19 1.63 21.2 5.03 2 1.13 3.13 3.19 4.89 4.43 1.82 1.28 3.88 1.55 5.96 2.3 0.45 0.16 0.65-0.56 0.2-0.72-2.24-0.81-3.56-0.98-5.44-2.59 0.88 0.75-3.04-2.73-2.83-2.57-2.63-1.96-5.93-3.17-8.9-4.53-4.99-2.29-9.9-4.25-15.28-2.08-0.44 0.18-0.25 0.91 0.2 0.73z"/>
				</g>
			</g>
			<g id="&lt;Group&gt;">
				<g id="&lt;Group&gt;">
					<path id="&lt;Path&gt;" class="s11" d="m238.43 413.76c5.39 3.8 4.34 11.36 10.66 14.2 0.44 0.19 0.82-0.45 0.38-0.65-4.11-1.84-4.62-5.19-6.27-8.93-0.96-2.18-2.45-3.9-4.39-5.26-0.39-0.28-0.77 0.37-0.38 0.64z"/>
				</g>
			</g>
			<g id="&lt;Group&gt;">
				<g id="&lt;Group&gt;">
					<path id="&lt;Path&gt;" class="s11" d="m248.72 417.04c2.44-0.5 4.84-0.18 7.07 0.95 0.43 0.21 0.81-0.43 0.38-0.65-2.41-1.22-5-1.57-7.65-1.02-0.47 0.09-0.27 0.82 0.2 0.72z"/>
				</g>
			</g>
			<g id="&lt;Group&gt;">
				<g id="&lt;Group&gt;">
					<path id="&lt;Path&gt;" class="s11" d="m243.65 434.42c3.74 1.28 6.79 1.29 9.72 4.38 1.57 1.66 2.93 3.34 4.83 4.64 2.31 1.58 5.21 2.28 7.24 4.25 1.24 1.21 1.5 2.3 3.32 2.58 0.47 0.07 0.67-0.65 0.19-0.72-1.8-0.28-4.11-3.48-5.92-4.41-2.87-1.46-5.35-2.8-7.65-5.15-1.42-1.46-2.52-3.22-4.34-4.25-2.16-1.23-4.88-1.26-7.19-2.05-0.46-0.15-0.66 0.57-0.2 0.73z"/>
				</g>
			</g>
			<g id="&lt;Group&gt;">
				<g id="&lt;Group&gt;">
					<path id="&lt;Path&gt;" class="s11" d="m120.77 265.49c0.26 5.17-2.14 9.38-3.9 14.07-1.48 3.96-1.64 7.74-1.8 11.92-0.38 10.18-8.24 17.39-9.78 27.44-0.49 3.18-0.64 6.33 0.52 9.37 1.99 5.18 4.54 9.34 4.4 15.16-0.22 9.12-7.13 15.68-5.77 25.04 0.07 0.47 0.79 0.27 0.72-0.2-1.39-9.59 6.19-16.87 5.79-26.49-0.15-3.39-1-6.7-2.43-9.76-1.37-2.92-2.83-5.44-2.88-8.8-0.04-2.98 0.6-6.1 1.46-8.95 1.43-4.76 4.15-8.43 6.46-12.71 1.73-3.19 2.13-6.51 2.26-10.1 0.22-5.65 1.12-10.16 3.28-15.37 1.45-3.52 2.61-6.79 2.42-10.62-0.03-0.48-0.78-0.49-0.75 0z"/>
				</g>
			</g>
			<g id="&lt;Group&gt;">
				<g id="&lt;Group&gt;">
					<path id="&lt;Path&gt;" class="s11" d="m38.53 266.38c4.19 8.95 11.1 16.54 14.24 25.99 1.38 4.16 1.79 8.21 4.03 12.04 2.61 4.49 4.87 9.07 7.01 13.81 2.25 5 4.32 10.05 5.79 15.34 1.23 4.46 2.17 9.03 3.97 13.3 1.68 3.98 4.45 6.57 6.62 10.18 2.36 3.92 1.4 8.66 3.82 12.51 0.26 0.4 0.91 0.03 0.65-0.38-2.29-3.64-1.32-8.18-3.46-11.91-2.59-4.48-5.94-7.83-7.77-12.87-3.21-8.86-5.06-17.89-8.98-26.55-2.01-4.46-4.04-8.88-6.56-13.08-2.81-4.7-3.21-9.84-5.21-14.83-3.41-8.54-9.62-15.62-13.51-23.93-0.2-0.44-0.85-0.06-0.64 0.38z"/>
				</g>
			</g>
			<g id="&lt;Group&gt;">
				<g id="&lt;Group&gt;">
					<path id="&lt;Path&gt;" class="s11" d="m22.93 303.2c2.19 5.88 6.09 8.49 11.24 11.69 7.76 4.81 9.68 11.74 11.55 20.15 1.31 5.87 2.99 10.96 6.84 15.64 2.51 3.05 5.6 5.93 6.73 9.84 0.79 2.72 0.3 5.23 2.03 7.61 0.29 0.39 0.94 0.01 0.65-0.38-1.87-2.55-1.27-5.9-2.43-8.77-0.86-2.11-2.29-3.92-3.73-5.67-2.44-2.96-4.97-5.66-6.58-9.2-1.58-3.47-2.31-7.17-3.13-10.87-1.18-5.31-2.53-11-6.36-15.11-5.44-5.82-13-6.83-16.08-15.13-0.17-0.45-0.89-0.26-0.73 0.2z"/>
				</g>
			</g>
			<path id="&lt;Path&gt;" class="s12" d="m397.69 427.63l77.38-1.49c0 0 5.14 21.57-6.1 36.8-11.24 15.22-35.64 19.25-52.98 13.12-17.34-6.12-24.06-28.99-18.3-48.43z"/>
			<path id="&lt;Path&gt;" class="s14" d="m413.77 427.32c0 0-3.72-0.92-3.32-7.21 0.39-6.3-0.03-12.77-0.03-12.77 0 0 2.17 1.58 4.27 5.77 2.09 4.2 4.54 9.62 5.07 10.14 0.52 0.53 11.19-2.27 7.34-13.63-3.85-11.37-8.74-20.11-4.72-33.22 4.02-13.11 6.29-15.04 8.04-21.16 1.75-6.12 5.54-8.91 5.54-8.91 0 0 0.41 8.52-2.04 15.54-2.45 7.01-5.77 22.92-3.67 30.96 2.09 8.04 5.42 12.24 4.72 19.58-0.7 7.35-1.58 11.37-1.58 11.37 0 0 4.55 1.75 5.95-0.35 1.4-2.1 1.05-15.21 6.64-18.53 5.6-3.33 12.06-9.97 12.06-9.97 0 0-2.62 11.89-6.29 18.53-3.67 6.65-3.33 13.19-3.33 13.19z"/>
			<path id="&lt;Path&gt;" class="s16" d="m439.57 162.41h-110.14c0 0 4.22-29.43 28.68-43.58 24.46-14.16 86.67 6.33 81.46 43.58z"/>
			<path id="&lt;Path&gt;" class="s16" d="m389.49 0l2.14 115.63h-6.98v-115.63z"/>
			<path id="&lt;Path&gt;" class="s14" d="m500 10.31c0 0-3.43 16.68-14.94 22.63-11.51 5.95-36.64 12.28-47.95 21.1-11.32 8.83-29.55 30.31-23.6 34.91 5.95 4.61 18.42-16.11 23.21-24.36 4.8-8.25 3.45-9.01 8.83-12.85 5.37-3.84 11.5-6.52 11.5-6.52 0 0-3.45 2.3-5.56 9.01-2.11 6.72-4.6 20.72 0.39 22.06 4.98 1.35 9.39-10.67 10.35-18.47 0.96-7.81 0.2-12.41 3.46-14.33 3.26-1.92 9.97-4.41 9.97-4.41 0 0-3.26 2.96-4.6 10.88-1.35 7.92 1.53 16.36 5.75 14.06 4.22-2.31 3.65-20.15 5.95-23.41 2.3-3.26 3.64-5.56 6.33-7.09 2.68-1.54 4.99-3.65 6.71-6.53 1.73-2.87 4.37-9.01 4.2-9.59-0.17-0.57 0-7.09 0-7.09z"/>
			<path id="&lt;Path&gt;" class="s14" d="m494.11 27.32c0 0-5.93 3.17-13.76 0-7.83-3.18-17.99-6.57-22.44-4.87-4.44 1.69-2.54 8.89 4.23 10.16 6.78 1.27 20.54 1.48 20.54 1.48 0 0 8.83-4.8 11.43-6.77z"/>
			<path id="&lt;Path&gt;" class="s14" d="m469.84 39.16c0 0-5.58 3.8-16.59 0-11-3.8-19.26-5.28-21.17-2.95-1.9 2.33 0.85 5.08 6.57 6.98 5.71 1.91 23.07 0 23.07 0z"/>
			<path id="&lt;Path&gt;" class="s3" d="m163.77 61.25v80.36l76.67-6.78-2.77-76.35z"/>
			<path id="&lt;Path&gt;" class="s17" d="m170.55 70.48l56.65-2.15v58.19l-56.65 4z"/>
			<path id="&lt;Path&gt;" class="s14" d="m197.63 76.05c0 0-10.26 6.09-10.16 10.97 0.1 4.87 1.73 5.38 4.57 6.2 2.84 0.81 5.18 2.53 3.86 3.85-1.32 1.33-5.38 0.92-7.21-0.5-1.83-1.42-4.27-4.47-4.27-4.47 0 0-2.33 4.6-0.51 7.33 1.83 2.72 4.38 2.72 6.51 2.72 2.13 0 8.73 4.17 6.7 5.69-2.03 1.52-7.52-1.01-9.45-1.62-1.93-0.61-1.93-0.61-1.93-0.61 0 0 0 6.19 5.18 9.34 5.18 3.15 13.21 2.34 13.61 2.23 0.41-0.1 8.53-1.32 11.38-5.78 2.84-4.47 4.47-8.64 4.47-8.64 0 0-1.73 1.32-3.96 3.25-2.24 1.93-3.36 3.86-6 3.35-2.64-0.5-2.74-2.64-0.61-3.86 2.14-1.21 7.52-3.14 7.42-6.7-0.1-3.55-3.35-8.63-3.76-8.83-0.41-0.21-0.71 4.36-4.98 5.38-4.26 1.01-5.58-0.1-4.06-1.93 1.52-1.83 6.6-1.63 4.88-5.69-1.73-4.06-8.84-11.68-11.68-11.68z"/>
			<path id="&lt;Path&gt;" class="s14" d="m130.96 180.63c-3.44-15.3-11.47-18.71-13.38-34.38-1.91-15.68-6.88-15.68-13.76-22.56-6.88-6.88-4.97-9.93-7.27-18.34-2.29-8.41-11.08-21.41-16.81-44.73-5.74-23.31-38.99-30.19-52.37-18.35-13.38 11.85 0 36.7 0 36.7-10.99-2.91-13.24-1.44-27.3 3.01v67.85c10.22 1.72 21.28 2.6 30.36 4.44 22.55 4.59 24.84 13.76 43.19 21.5 18.35 7.74 19.11 6.41 27.52 16.73 8.41 10.32 29.82 20.26 29.82 20.26 0 0 3.44-16.82 0-32.13z"/>
			<g id="&lt;Group&gt;">
				<g id="&lt;Group&gt;">
					<path id="&lt;Path&gt;" class="s11" d="m23.53 78.72c7.71 3.39 15.2 7.23 22.39 11.61 7.82 4.78 14.57 9.37 17.78 18.35 2.07 5.81 3.59 11.6 6.6 17.03 2.9 5.22 6.55 9.98 10.37 14.54 8.37 9.98 18.04 19.2 24.13 30.86 3.26 6.25 4.24 13.11 6.92 19.55 1.01 2.44 2.34 4.62 4.15 6.55 3.61 3.84 9.01 6.94 7.68 13.2-0.1 0.47 0.63 0.67 0.73 0.2 1.38-6.52-4.02-9.75-7.88-13.93-5.6-6.05-6-14.75-9.11-22.05-5.18-12.19-14.71-21.78-23.27-31.62-4.81-5.53-9.5-11.25-13.07-17.67-3.66-6.58-4.88-13.92-8.07-20.66-3.12-6.62-9.04-10.3-15.05-14.05-7.66-4.77-15.66-8.93-23.92-12.56-0.44-0.19-0.82 0.46-0.38 0.65z"/>
				</g>
			</g>
			<g id="&lt;Group&gt;">
				<g id="&lt;Group&gt;">
					<path id="&lt;Path&gt;" class="s11" d="m34.79 84.57c-6.76 8.38-12.41 17.55-16.62 27.47-2.05 4.82-4.17 9.92-4.75 15.17-0.18 1.61-0.8 5.58 1.27 6.57 5.28 2.51 11.11-15.36 12.39-18.16 4.51-9.85 9.36-19.7 10.12-30.68 0.04-0.48-0.71-0.48-0.75 0-0.65 9.35-4.3 17.76-8.14 26.19q-2.24 4.93-4.52 9.85c-0.3 0.66-6.67 15.48-9.62 10.84-1.94-3.06 1.44-11.02 2.52-13.99q2.15-5.92 4.96-11.55c3.75-7.56 8.38-14.61 13.67-21.18 0.3-0.37-0.23-0.9-0.53-0.53z"/>
				</g>
			</g>
			<g id="&lt;Group&gt;">
				<g id="&lt;Group&gt;">
					<path id="&lt;Path&gt;" class="s11" d="m59.48 98.52c-4.81 8.94-8.7 18.48-10.87 28.42-1.61 7.33-2.87 16.4 2.13 22.68 0.16 0.19 0.47 0.1 0.59-0.08 1.67-2.68 1.98-5.82 2.57-8.88q1.3-6.74 2.6-13.49c1.54-7.97 3.33-15.91 3.36-24.06 0-0.48-0.75-0.48-0.75 0-0.03 8.08-1.8 15.96-3.33 23.86q-1.11 5.79-2.23 11.57c-0.37 1.92-0.7 3.86-1.12 5.78-0.64 2.97-1.69 3.53-3.61 0.2-1.7-2.95-0.79-9.05-0.37-12.26 0.48-3.77 1.36-7.44 2.43-11.08 2.28-7.75 5.42-15.17 9.24-22.28 0.23-0.43-0.41-0.81-0.64-0.38z"/>
				</g>
			</g>
			<g id="&lt;Group&gt;">
				<g id="&lt;Group&gt;">
					<path id="&lt;Path&gt;" class="s11" d="m50.15 90.32c5.46-1.13 10.96-1.89 16.53-2.12q3.73-0.16 7.46-0.03c1.45 0.05 7.94-0.21 8.73 0.86 0.53 0.71-7.45 1.78-8.54 1.84q-3.71 0.22-7.43 0.21c-5.55-0.02-11.07-0.46-16.57-1.21-0.47-0.07-0.67 0.66-0.2 0.72 10.62 1.45 24.41 3.35 34.55-1 0.33-0.14 0.17-0.58-0.09-0.69-5.17-2.04-11.51-1.66-16.98-1.48-5.95 0.19-11.83 0.97-17.66 2.17-0.47 0.1-0.27 0.82 0.2 0.73z"/>
				</g>
			</g>
			<g id="&lt;Group&gt;">
				<g id="&lt;Group&gt;">
					<path id="&lt;Path&gt;" class="s11" d="m75.07 125.33c3.53-0.24 7.02-0.09 10.5 0.6 1.71 0.35 8.72 1.77 9.22 3.23q1.82 0.62-0.99 0.95-0.81 0.03-1.62 0.06c-2.09 0.12-4.33-0.34-6.38-0.7-2.7-0.49-10.41-1.41-10.93-4.98-0.07-0.47-0.79-0.27-0.72 0.2 0.54 3.76 5.18 4.1 8.28 4.83 4.87 1.14 9.71 1.89 14.65 0.78 0.31-0.07 0.36-0.53 0.09-0.69-6.82-3.86-14.28-5.56-22.1-5.03-0.48 0.03-0.48 0.78 0 0.75z"/>
				</g>
			</g>
			<g id="&lt;Group&gt;">
				<g id="&lt;Group&gt;">
					<path id="&lt;Path&gt;" class="s11" d="m83.87 144.94q-3.48 10.5-5.73 21.33c-0.07 0.34 0.36 0.67 0.62 0.37 1.91-2.25 1.94-5.26 2.58-8.05 1-4.31 2.4-8.48 4.08-12.57 0.19-0.44-0.54-0.64-0.72-0.19-2.35 5.7-5.25 12.87-5.52 19.09 0.13-3 1.44-6.32 2.22-9.21q1.44-5.33 3.2-10.57c0.15-0.46-0.58-0.66-0.73-0.2z"/>
				</g>
			</g>
			<path id="&lt;Path&gt;" class="s14" d="m0 170.69c0 0 24.35 2.37 29.8 15.39 5.45 13.02 7.68 19.05 17.85 22.65 10.17 3.6 12.5 4.38 17.37 15.28 4.87 10.9 17.03 15.57 19.31 18.29 2.29 2.73-23.74 0.46-41.86-3.85-18.12-4.32-23.96-3.54-31.35-6.66-7.4-3.11-11.12-2.72-11.12-2.72z"/>
			<g id="&lt;Group&gt;">
				<g id="&lt;Group&gt;">
					<path id="&lt;Path&gt;" class="s11" d="m3.56 195.11c8.94-2.55 13.64 6.85 19.43 11.6 4.75 3.89 10.88 4.16 15.47 8.46 9.18 8.61 18.24 16.03 29.67 21.56 0.43 0.21 0.81-0.44 0.37-0.65-7.01-3.39-13.64-7.47-19.7-12.37-4.97-4.01-9.21-10.24-15.03-12.94-2.75-1.28-5.83-1.65-8.45-3.26-3.6-2.23-5.94-5.83-8.95-8.7-3.62-3.46-7.96-5.86-13.01-4.42-0.47 0.13-0.27 0.85 0.2 0.72z"/>
				</g>
			</g>
			<g id="&lt;Group&gt;">
				<g id="&lt;Group&gt;">
					<path id="&lt;Path&gt;" class="s11" d="m11.43 196.14c1.85 6.35-2.41 12.81-2.69 19.25-0.09 2.09-0.68 7.43 2.48 8.13 2.41 0.54 3.08-1.91 3.25-3.77 0.65-7.11-0.23-14.67-0.35-21.82-0.01-0.48-0.76-0.48-0.75 0q0.12 6.74 0.24 13.49c0.03 1.68 0.4 4.12 0.1 5.77q1.03 4.15-4.22 1.54-0.05-1.26-0.01-2.51c0.13-6.84 4.65-13.51 2.67-20.28-0.13-0.47-0.86-0.27-0.72 0.2z"/>
				</g>
			</g>
			<g id="&lt;Group&gt;">
				<g id="&lt;Group&gt;">
					<path id="&lt;Path&gt;" class="s11" d="m27.52 207.99c2.05-1.22 4.35-1.63 6.7-1.15q-0.09-0.32-0.17-0.63c-1.91 1.48-4.31 1.87-6.6 1.14-0.46-0.15-0.66 0.57-0.2 0.72 2.57 0.82 5.21 0.31 7.33-1.33 0.22-0.17 0.09-0.58-0.17-0.63-2.54-0.51-5.04-0.09-7.27 1.24-0.42 0.24-0.04 0.89 0.38 0.64z"/>
				</g>
			</g>
		</g>
	</g>
</svg>